{"glyphs":{"0":{"ha":711,"x_min":68,"x_max":643,"o":"m 356 -15 q 283 -15 356 -15 q 140 67 210 -15 q 69 315 69 150 l 69 654 q 142 892 69 811 q 356 974 215 974 q 572 893 501 974 q 642 654 642 813 l 642 315 q 572 68 642 151 q 356 -15 501 -15 m 356 143 q 438 185 417 143 q 460 331 460 228 l 460 628 q 438 772 460 731 q 356 814 417 814 q 274 772 294 814 q 253 628 253 731 l 253 331 q 274 185 253 228 q 356 143 296 143 z "},"1":{"ha":483,"x_min":50,"x_max":393,"o":"m 211 757 l 50 640 l 50 838 l 211 958 l 393 958 l 393 0 l 211 0 l 211 757 z "},"2":{"ha":685,"x_min":63,"x_max":622,"o":"m 67 144 l 385 557 q 438 692 438 628 l 438 711 q 410 790 438 761 q 338 819 383 819 q 265 789 292 819 q 239 704 239 758 l 239 682 l 63 682 l 63 715 q 97 849 63 790 q 194 940 131 907 q 344 974 258 974 q 491 939 428 974 q 588 846 554 904 q 622 717 622 788 l 622 693 q 600 578 622 631 q 535 469 578 525 l 296 160 l 622 160 l 622 0 l 67 0 l 67 144 z "},"3":{"ha":700,"x_min":61,"x_max":631,"o":"m 346 -15 q 137 49 211 -15 q 63 232 63 114 l 63 261 l 232 261 l 232 240 q 260 165 232 190 q 343 139 289 139 q 424 172 394 139 q 454 263 454 206 l 454 288 q 422 383 454 350 q 329 417 390 417 l 281 417 l 281 571 l 328 571 q 410 601 381 571 q 439 686 439 632 l 439 707 q 412 790 439 760 q 338 819 385 819 q 263 792 289 819 q 236 718 236 765 l 236 694 l 69 694 l 69 718 q 142 906 69 839 q 344 974 215 974 q 543 905 471 974 q 615 721 615 836 l 615 700 q 586 588 615 638 q 503 510 557 539 q 598 426 565 483 q 631 289 631 369 l 631 263 q 594 115 631 178 q 493 19 558 53 q 346 -15 428 -15 z "},"4":{"ha":724,"x_min":49,"x_max":675,"o":"m 675 153 l 597 153 l 597 0 l 415 0 l 415 153 l 49 153 l 49 313 l 322 958 l 504 958 l 231 313 l 415 313 l 415 538 l 597 538 l 597 313 l 675 313 l 675 153 z "},"5":{"ha":690,"x_min":69,"x_max":622,"o":"m 340 -15 q 142 47 215 -15 q 69 221 69 110 l 69 242 l 236 242 l 236 233 q 264 164 236 189 q 340 139 292 139 q 419 173 393 139 q 444 272 444 207 l 444 344 q 419 445 444 413 q 339 478 393 478 q 240 413 269 478 l 83 413 l 83 958 l 601 958 l 601 803 l 240 803 l 240 586 q 376 631 296 631 q 559 559 497 631 q 621 354 621 488 l 621 264 q 547 58 621 132 q 340 -15 472 -15 z "},"6":{"ha":717,"x_min":61,"x_max":656,"o":"m 358 -15 q 141 60 219 -15 q 63 268 63 135 l 63 311 q 78 419 63 368 q 125 532 94 471 l 344 958 l 536 958 l 338 571 q 407 585 368 585 q 587 513 519 585 q 654 318 654 442 l 654 274 q 573 61 654 138 q 358 -15 492 -15 m 358 139 q 385 139 358 139 q 442 172 411 139 q 472 265 472 206 l 472 308 q 442 401 472 368 q 358 433 411 433 q 276 401 306 433 q 246 310 246 368 l 246 264 q 276 172 246 206 q 358 139 306 139 z "},"7":{"ha":635,"x_min":42,"x_max":593,"o":"m 593 958 l 593 800 l 301 0 l 118 0 l 415 800 l 42 800 l 42 958 l 593 958 z "},"8":{"ha":729,"x_min":68,"x_max":660,"o":"m 364 -15 q 322 -15 364 -15 q 213 19 279 -15 q 108 117 146 53 q 69 264 69 181 l 69 296 q 100 416 69 361 q 186 503 131 471 q 115 577 142 529 q 88 688 88 625 l 88 713 q 122 843 88 783 q 218 938 156 903 q 365 974 281 974 q 513 938 450 974 q 610 843 576 903 q 643 713 643 783 l 643 688 q 615 578 643 626 q 544 503 588 529 q 630 415 600 469 q 660 297 660 360 l 660 265 q 622 117 660 181 q 516 19 583 53 q 364 -15 449 -15 m 365 575 q 389 575 365 575 q 440 606 413 575 q 468 686 468 638 l 468 713 q 440 789 468 758 q 365 819 411 819 q 291 789 319 819 q 263 713 263 758 l 263 686 q 290 606 263 636 q 365 575 318 575 m 365 139 q 452 174 419 139 q 485 267 485 208 l 485 300 q 452 390 485 356 q 365 425 419 425 q 279 390 313 425 q 246 300 246 356 l 246 267 q 278 174 246 210 q 365 139 310 139 z "},"9":{"ha":717,"x_min":61,"x_max":656,"o":"m 379 388 q 310 374 349 374 q 130 445 197 374 q 63 640 63 517 l 63 685 q 144 897 63 821 q 358 974 225 974 q 576 899 497 974 q 654 690 654 824 l 654 647 q 638 540 654 592 q 592 426 622 488 l 372 0 l 181 0 l 379 388 m 358 525 q 385 525 358 525 q 441 558 411 525 q 471 649 471 590 l 471 694 q 441 786 471 753 q 358 819 411 819 q 275 786 306 819 q 244 693 244 753 l 244 650 q 275 558 244 590 q 358 525 306 525 z "},"\r":{"ha":318,"x_min":0,"x_max":0,"o":""}," ":{"ha":318,"x_min":0,"x_max":0,"o":""},"!":{"ha":346,"x_min":75,"x_max":271,"o":"m 75 958 l 271 958 l 238 319 l 108 319 l 75 958 m 82 181 l 264 181 l 264 0 l 82 0 l 82 181 z "},"\"":{"ha":529,"x_min":53,"x_max":476,"o":"m 53 958 l 215 958 l 215 544 l 53 544 l 53 958 m 315 958 l 476 958 l 476 544 l 315 544 l 315 958 z "},"#":{"ha":749,"x_min":25,"x_max":724,"o":"m 599 564 l 579 411 l 689 411 l 689 283 l 563 283 l 525 0 l 381 0 l 418 283 l 271 283 l 233 0 l 90 0 l 128 283 l 25 283 l 25 411 l 144 411 l 165 564 l 60 564 l 60 692 l 182 692 l 217 958 l 360 958 l 325 692 l 472 692 l 507 958 l 650 958 l 615 692 l 724 692 l 724 564 l 599 564 m 456 564 l 308 564 l 288 411 l 435 411 l 456 564 z "},"$":{"ha":697,"x_min":39,"x_max":628,"o":"m 628 311 q 571 133 628 200 q 413 47 514 67 l 413 -83 l 269 -83 l 269 44 q 106 130 165 60 q 40 315 46 200 l 200 315 q 241 217 208 246 q 339 189 274 189 q 458 297 458 189 q 435 372 458 346 q 358 407 411 397 l 290 419 q 117 499 174 440 q 61 663 61 558 q 117 832 61 765 q 269 918 172 899 l 269 1028 l 413 1028 l 413 917 q 556 833 503 897 q 615 665 608 768 l 451 665 q 418 752 446 725 q 335 779 390 779 q 256 752 283 779 q 228 675 228 725 q 254 606 228 631 q 340 569 281 581 l 419 554 q 576 475 524 535 q 628 311 628 415 m 183 958 z "},"%":{"ha":1256,"x_min":54,"x_max":1200,"o":"m 243 367 q 101 419 146 367 q 56 574 56 471 l 56 771 q 103 917 56 868 q 243 967 151 967 q 384 918 339 967 q 429 771 429 869 l 429 574 q 384 419 429 471 q 243 367 339 367 m 826 965 l 964 965 l 428 0 l 292 0 l 826 965 m 243 490 q 258 490 243 490 q 279 508 272 490 q 286 581 286 526 l 286 753 q 278 825 286 806 q 243 844 271 844 q 207 825 215 844 q 199 753 199 806 l 199 581 q 206 510 199 529 q 243 490 214 490 m 1013 -8 q 870 44 915 -8 q 825 199 825 96 l 825 396 q 873 542 825 493 q 1013 592 921 592 q 1153 543 1108 592 q 1199 396 1199 494 l 1199 199 q 1153 44 1199 96 q 1013 -8 1108 -8 m 1013 115 q 1027 115 1013 115 q 1049 133 1042 115 q 1056 206 1056 151 l 1056 378 q 1048 450 1056 431 q 1013 469 1040 469 q 976 450 985 469 q 968 378 968 431 l 968 206 q 976 135 968 154 q 1013 115 983 115 z "},"&":{"ha":831,"x_min":61,"x_max":768,"o":"m 736 149 l 767 149 l 767 0 l 700 0 q 622 18 651 0 q 556 86 593 36 l 550 93 q 443 10 499 35 q 317 -15 388 -15 q 129 54 196 -15 q 63 238 63 124 q 101 385 63 317 q 233 529 140 453 q 154 655 176 608 q 132 751 132 701 q 163 866 132 815 q 247 945 193 917 q 367 974 300 974 q 488 944 435 974 q 571 865 542 915 q 600 753 600 814 q 565 633 600 689 q 443 504 531 578 l 564 342 l 660 461 l 768 365 l 653 221 l 679 185 q 736 149 707 149 m 368 840 q 314 818 335 840 q 293 758 293 796 q 305 706 293 732 q 356 625 317 679 q 424 697 407 668 q 442 758 442 725 q 421 817 442 794 q 368 840 400 840 m 331 133 q 394 151 365 133 q 463 214 424 168 l 322 406 q 248 324 269 360 q 226 250 226 288 q 254 165 226 196 q 331 133 282 133 z "},"'":{"ha":268,"x_min":53,"x_max":215,"o":"m 53 958 l 215 958 l 215 544 l 53 544 l 53 958 z "},"(":{"ha":431,"x_min":63,"x_max":368,"o":"m 63 456 q 243 1028 63 768 l 368 1028 q 267 749 301 896 q 233 456 233 603 q 268 163 233 310 q 368 -117 303 15 l 242 -117 q 63 456 63 149 z "},")":{"ha":431,"x_min":63,"x_max":369,"o":"m 63 -117 q 163 163 128 15 q 197 456 197 310 q 163 749 197 603 q 63 1028 129 896 l 188 1028 q 368 456 368 768 q 189 -117 368 149 l 63 -117 z "},"*":{"ha":524,"x_min":63,"x_max":461,"o":"m 214 675 l 106 613 l 63 688 l 174 751 l 63 815 l 106 890 l 214 829 l 214 958 l 310 958 l 310 828 l 418 890 l 460 815 l 349 751 l 461 688 l 417 613 l 310 674 l 310 540 l 214 540 l 214 675 z "},"+":{"ha":735,"x_min":67,"x_max":668,"o":"m 289 304 l 67 304 l 67 463 l 289 463 l 289 685 l 447 685 l 447 463 l 668 463 l 668 304 l 447 304 l 447 82 l 289 82 l 289 304 z "},",":{"ha":268,"x_min":53,"x_max":215,"o":"m 53 190 l 215 190 l 215 -87 l 53 -225 l 53 190 z "},"-":{"ha":507,"x_min":63,"x_max":444,"o":"m 63 560 l 444 560 l 444 400 l 63 400 l 63 560 z "},".":{"ha":299,"x_min":53,"x_max":246,"o":"m 53 197 l 246 197 l 246 0 l 53 0 l 53 197 z "},"/":{"ha":563,"x_min":63,"x_max":500,"o":"m 356 965 l 500 965 l 206 -14 l 63 -14 l 356 965 z "},":":{"ha":299,"x_min":53,"x_max":246,"o":"m 53 197 l 246 197 l 246 0 l 53 0 l 53 197 m 53 667 l 246 667 l 246 469 l 53 469 l 53 667 m 150 722 z "},";":{"ha":299,"x_min":53,"x_max":246,"o":"m 53 667 l 246 667 l 246 469 l 53 469 l 53 667 m 81 190 l 243 190 l 243 -87 l 81 -225 l 81 190 m 144 722 z "},"<":{"ha":735,"x_min":67,"x_max":667,"o":"m 67 310 l 67 453 l 667 688 l 667 528 l 281 381 l 667 235 l 667 74 l 67 310 z "},"=":{"ha":735,"x_min":67,"x_max":667,"o":"m 67 607 l 667 607 l 667 450 l 67 450 l 67 607 m 67 317 l 667 317 l 667 160 l 67 160 l 67 317 z "},">":{"ha":735,"x_min":67,"x_max":667,"o":"m 67 235 l 453 381 l 67 528 l 67 688 l 667 453 l 667 310 l 67 74 l 67 235 z "},"?":{"ha":626,"x_min":38,"x_max":579,"o":"m 218 339 q 228 425 218 393 q 275 504 239 457 l 351 603 q 390 665 379 639 q 401 719 401 690 q 377 790 401 764 q 303 815 353 815 q 230 788 253 815 q 206 706 207 761 l 38 706 q 110 904 40 836 q 308 972 179 972 q 451 940 389 972 q 546 852 513 908 q 579 725 579 796 q 563 633 579 675 q 508 542 546 590 l 428 433 q 398 383 406 404 q 390 326 390 361 l 390 268 l 218 268 l 218 339 m 213 175 l 394 175 l 394 0 l 213 0 l 213 175 z "},"@":{"ha":1213,"x_min":63,"x_max":1150,"o":"m 607 -189 q 324 -122 447 -189 q 131 65 200 -56 q 63 342 63 185 l 63 439 q 131 716 63 596 q 324 903 200 836 q 607 969 447 969 q 888 903 764 969 q 1081 718 1011 838 q 1150 446 1150 599 l 1150 349 q 1083 145 1150 215 q 915 75 1017 75 q 808 99 853 75 q 740 165 764 122 q 563 75 696 75 q 353 326 353 75 l 353 449 q 402 635 353 568 q 553 701 451 701 q 641 682 603 701 q 697 631 679 663 l 697 686 l 849 686 l 849 290 q 867 224 849 246 q 917 203 886 203 q 975 237 956 203 q 994 347 994 271 l 994 444 q 948 649 994 563 q 815 783 901 736 q 607 831 728 831 q 322 726 425 831 q 218 442 218 622 l 218 343 q 265 136 218 225 q 399 -1 311 47 q 607 -50 486 -50 q 757 -33 690 -50 q 894 21 824 -15 l 956 -97 q 792 -167 875 -144 q 607 -189 708 -189 m 694 331 l 694 447 q 603 571 694 571 q 531 538 554 571 q 508 449 508 506 l 508 335 q 531 239 508 272 q 603 206 553 206 q 694 331 694 206 z "},"A":{"ha":842,"x_min":6,"x_max":836,"o":"m 585 186 l 256 186 l 197 0 l 6 0 l 346 958 l 494 958 l 836 0 l 643 0 l 585 186 m 536 338 l 419 706 l 304 338 l 536 338 z "},"B":{"ha":831,"x_min":81,"x_max":761,"o":"m 628 493 q 727 408 693 464 q 761 275 761 353 q 683 72 761 144 q 467 0 606 0 l 82 0 l 82 958 l 451 958 q 670 889 592 958 q 749 692 749 819 q 717 574 749 628 q 628 493 685 521 m 264 800 l 264 567 l 438 567 q 533 597 500 567 q 565 681 565 626 q 533 769 565 739 q 438 800 500 800 l 264 800 m 449 158 q 547 192 514 158 q 579 288 579 226 q 547 376 579 344 q 449 408 514 408 l 264 408 l 264 158 l 449 158 z "},"C":{"ha":833,"x_min":68,"x_max":764,"o":"m 69 371 l 69 590 q 421 972 69 972 q 671 889 578 972 q 764 654 764 806 l 764 644 l 582 644 l 582 653 q 540 769 582 726 q 419 813 497 813 q 292 758 332 813 q 253 581 253 704 l 253 374 q 294 204 253 257 q 422 151 335 151 q 541 193 500 151 q 582 307 582 235 l 582 318 l 761 318 l 761 308 q 669 72 761 154 q 418 -11 578 -11 q 69 371 69 -11 z "},"D":{"ha":833,"x_min":82,"x_max":764,"o":"m 82 958 l 419 958 q 672 869 579 958 q 764 578 764 781 l 764 382 q 669 90 764 179 q 414 0 575 0 l 82 0 l 82 958 m 418 158 q 541 213 500 158 q 582 383 582 267 l 582 568 q 542 745 582 690 q 418 800 501 800 l 264 800 l 264 158 l 418 158 z "},"E":{"ha":739,"x_min":82,"x_max":690,"o":"m 264 800 l 264 563 l 628 563 l 628 404 l 264 404 l 264 158 l 690 158 l 690 0 l 82 0 l 82 958 l 690 958 l 690 800 l 264 800 z "},"F":{"ha":732,"x_min":82,"x_max":690,"o":"m 264 800 l 264 554 l 629 554 l 629 396 l 264 396 l 264 0 l 82 0 l 82 958 l 690 958 l 690 800 l 264 800 z "},"G":{"ha":833,"x_min":68,"x_max":764,"o":"m 69 371 l 69 590 q 421 972 69 972 q 671 890 578 972 q 764 661 764 807 l 764 651 l 582 651 l 582 661 q 540 769 582 726 q 419 813 497 813 q 292 758 332 813 q 253 581 253 704 l 253 374 q 295 203 253 256 q 426 151 338 151 q 548 194 510 151 q 586 325 586 238 l 586 371 l 417 371 l 417 521 l 764 521 l 764 357 q 418 -11 764 -11 q 69 371 69 -11 z "},"H":{"ha":846,"x_min":82,"x_max":764,"o":"m 764 958 l 764 0 l 582 0 l 582 406 l 264 406 l 264 0 l 82 0 l 82 958 l 264 958 l 264 564 l 582 564 l 582 958 l 764 958 z "},"I":{"ha":363,"x_min":90,"x_max":272,"o":"m 90 958 l 272 958 l 272 0 l 90 0 l 90 958 z "},"J":{"ha":460,"x_min":33,"x_max":369,"o":"m 33 160 l 108 160 q 169 180 151 160 q 186 250 186 200 l 186 958 l 369 958 l 369 219 q 312 57 369 114 q 150 0 254 0 l 33 0 l 33 160 z "},"K":{"ha":847,"x_min":82,"x_max":839,"o":"m 390 426 l 264 268 l 264 0 l 82 0 l 82 958 l 264 958 l 264 511 l 596 958 l 814 958 l 507 574 l 839 0 l 628 0 l 390 426 z "},"L":{"ha":717,"x_min":82,"x_max":683,"o":"m 82 958 l 264 958 l 264 158 l 683 158 l 683 0 l 82 0 l 82 958 z "},"M":{"ha":1017,"x_min":82,"x_max":935,"o":"m 935 958 l 935 0 l 753 0 l 753 568 l 571 185 l 449 185 l 264 572 l 264 0 l 82 0 l 82 958 l 264 958 l 510 429 l 753 958 l 935 958 z "},"N":{"ha":881,"x_min":82,"x_max":799,"o":"m 799 958 l 799 0 l 617 0 l 264 599 l 264 0 l 82 0 l 82 958 l 264 958 l 617 358 l 617 958 l 799 958 z "},"O":{"ha":833,"x_min":68,"x_max":765,"o":"m 69 371 l 69 590 q 418 972 69 972 q 671 883 578 972 q 764 590 764 793 l 764 371 q 669 78 764 168 q 413 -11 574 -11 q 69 371 69 -11 m 418 151 q 542 205 501 151 q 582 374 582 258 l 582 581 q 542 758 582 703 q 418 813 501 813 q 292 759 331 813 q 253 581 253 706 l 253 374 q 292 203 253 256 q 418 151 331 151 z "},"P":{"ha":788,"x_min":82,"x_max":754,"o":"m 440 958 q 670 878 586 958 q 754 657 754 797 q 670 444 754 524 q 440 364 586 364 l 264 364 l 264 0 l 82 0 l 82 958 l 440 958 m 432 524 q 535 558 497 524 q 572 657 572 593 q 535 763 572 726 q 432 800 499 800 l 264 800 l 264 524 l 432 524 z "},"Q":{"ha":833,"x_min":68,"x_max":765,"o":"m 633 49 l 735 -137 l 596 -214 l 483 -7 q 413 -11 450 -11 q 69 371 69 -11 l 69 590 q 418 972 69 972 q 671 883 578 972 q 764 590 764 793 l 764 371 q 633 49 764 140 m 253 374 q 292 203 253 256 q 418 151 331 151 q 542 205 501 151 q 582 374 582 258 l 582 581 q 542 758 582 703 q 418 813 501 813 q 292 759 331 813 q 253 581 253 706 l 253 374 z "},"R":{"ha":833,"x_min":82,"x_max":792,"o":"m 400 389 l 264 389 l 264 0 l 82 0 l 82 958 l 446 958 q 669 881 586 958 q 753 672 753 804 q 709 513 753 578 q 583 417 665 447 l 792 0 l 582 0 l 400 389 m 264 540 l 436 540 q 535 574 500 540 q 571 672 571 608 q 535 765 571 731 q 436 800 499 800 l 264 800 l 264 540 z "},"S":{"ha":761,"x_min":33,"x_max":713,"o":"m 371 -8 q 131 69 217 -8 q 35 292 44 146 l 207 292 q 258 180 217 213 q 379 147 299 147 q 533 274 533 147 q 503 360 533 331 q 406 401 472 390 l 315 417 q 56 683 56 460 q 144 894 56 817 q 378 972 232 972 q 602 897 519 972 q 696 686 685 822 l 521 686 q 481 788 517 756 q 375 819 444 819 q 268 787 304 819 q 232 697 232 754 q 264 618 232 647 q 364 576 296 589 l 465 558 q 713 289 713 514 q 620 68 713 144 q 371 -8 528 -8 z "},"T":{"ha":689,"x_min":8,"x_max":681,"o":"m 681 800 l 436 800 l 436 0 l 253 0 l 253 800 l 8 800 l 8 958 l 681 958 l 681 800 z "},"U":{"ha":853,"x_min":82,"x_max":772,"o":"m 425 -8 q 249 33 328 -8 q 126 148 171 74 q 82 317 82 222 l 82 958 l 264 958 l 264 322 q 307 195 264 240 q 425 150 350 150 q 544 195 500 150 q 588 322 588 240 l 588 958 l 771 958 l 771 317 q 726 148 771 222 q 602 33 681 74 q 425 -8 524 -8 z "},"V":{"ha":769,"x_min":6,"x_max":764,"o":"m 6 958 l 196 958 l 385 296 l 574 958 l 764 958 l 457 0 l 311 0 l 6 958 z "},"W":{"ha":1157,"x_min":6,"x_max":1151,"o":"m 1151 958 l 922 0 l 756 0 l 581 710 l 407 0 l 242 0 l 6 958 l 188 958 l 332 282 l 472 958 l 699 958 l 846 282 l 982 958 l 1151 958 z "},"X":{"ha":824,"x_min":6,"x_max":818,"o":"m 304 499 l 28 958 l 243 958 l 413 647 l 579 958 l 786 958 l 515 506 l 818 0 l 601 0 l 408 354 l 213 0 l 6 0 l 304 499 z "},"Y":{"ha":751,"x_min":6,"x_max":746,"o":"m 467 394 l 467 0 l 285 0 l 285 393 l 6 958 l 204 958 l 375 569 l 546 958 l 746 958 l 467 394 z "},"Z":{"ha":701,"x_min":42,"x_max":664,"o":"m 664 160 l 664 0 l 42 0 l 42 160 l 454 800 l 50 800 l 50 958 l 651 958 l 651 800 l 240 160 l 664 160 z "},"[":{"ha":438,"x_min":82,"x_max":375,"o":"m 82 1029 l 375 1029 l 375 869 l 254 869 l 254 43 l 375 43 l 375 -117 l 82 -117 l 82 1029 z "},"\\":{"ha":563,"x_min":63,"x_max":500,"o":"m 63 965 l 206 965 l 500 -14 l 357 -14 l 63 965 z "},"]":{"ha":439,"x_min":63,"x_max":357,"o":"m 63 43 l 185 43 l 185 865 l 63 865 l 63 1024 l 357 1024 l 357 -117 l 63 -117 l 63 43 z "},"^":{"ha":735,"x_min":58,"x_max":675,"o":"m 294 965 l 439 965 l 675 376 l 532 376 l 367 799 l 201 376 l 58 376 l 294 965 z "},"_":{"ha":694,"x_min":0,"x_max":694,"o":"m 0 -56 l 694 -56 l 694 -168 l 0 -168 l 0 -56 z "},"`":{"ha":694,"x_min":176,"x_max":517,"o":"m 176 1001 l 367 1001 l 517 817 l 368 817 l 176 1001 z "},"a":{"ha":696,"x_min":49,"x_max":621,"o":"m 336 731 q 547 666 474 731 q 621 475 621 601 l 621 0 l 454 0 l 454 63 q 380 8 418 25 q 283 -8 342 -8 q 111 51 172 -8 q 50 217 50 111 q 115 370 50 314 q 297 426 181 426 l 450 426 l 450 483 q 335 599 450 599 q 258 574 286 599 q 229 510 229 550 l 229 506 l 69 506 l 69 511 q 142 672 69 613 q 336 731 214 731 m 322 131 q 420 162 390 131 q 450 257 450 193 l 450 308 l 325 308 q 217 221 217 308 q 322 131 217 131 z "},"b":{"ha":715,"x_min":74,"x_max":654,"o":"m 243 67 l 243 0 l 75 0 l 75 958 l 247 958 l 247 649 q 408 731 307 731 q 585 657 517 731 q 653 433 653 583 l 653 290 q 585 66 653 140 q 414 -8 517 -8 q 243 67 304 -8 m 481 296 l 481 426 q 449 542 481 507 q 365 578 418 578 q 278 539 310 578 q 246 426 246 500 l 246 296 q 278 183 246 222 q 369 144 311 144 q 481 296 481 144 z "},"c":{"ha":701,"x_min":61,"x_max":639,"o":"m 356 -8 q 141 65 219 -8 q 63 294 63 139 l 63 429 q 141 657 63 583 q 356 731 219 731 q 564 663 489 731 q 639 474 639 594 l 639 460 l 475 460 l 475 468 q 444 549 475 519 q 358 578 413 578 q 233 426 233 578 l 233 296 q 266 179 233 214 q 358 144 299 144 q 444 172 413 144 q 475 250 475 200 l 475 258 l 639 258 l 639 249 q 564 60 639 129 q 356 -8 489 -8 z "},"d":{"ha":714,"x_min":63,"x_max":640,"o":"m 301 -8 q 130 66 197 -8 q 63 290 63 140 l 63 433 q 128 657 63 583 q 300 731 194 731 q 468 649 408 731 l 468 958 l 639 958 l 639 0 l 471 0 l 471 67 q 301 -8 411 -8 m 346 144 q 436 183 404 144 q 468 296 468 222 l 468 426 q 437 539 468 500 q 350 578 406 578 q 235 426 235 578 l 235 296 q 346 144 235 144 z "},"e":{"ha":718,"x_min":63,"x_max":656,"o":"m 233 310 l 233 290 q 269 175 233 210 q 372 140 306 140 q 453 162 424 140 q 485 222 482 183 l 486 226 l 650 226 l 650 219 q 574 54 650 117 q 365 -8 497 -8 q 144 72 226 -8 q 63 318 63 151 l 63 406 q 142 649 63 568 q 360 731 221 731 q 576 649 496 731 q 656 406 656 567 l 656 310 l 233 310 m 360 583 q 266 549 299 583 q 233 432 233 514 l 233 428 l 483 428 l 483 446 q 360 583 483 583 z "},"f":{"ha":464,"x_min":50,"x_max":426,"o":"m 369 842 q 315 824 332 842 q 297 772 297 807 l 297 722 l 426 722 l 426 601 l 297 601 l 297 0 l 126 0 l 126 601 l 50 601 l 50 722 l 126 722 l 126 765 q 178 908 126 857 q 326 958 231 958 l 426 958 l 426 842 l 369 842 z "},"g":{"ha":714,"x_min":63,"x_max":640,"o":"m 346 -228 q 149 -172 219 -228 q 72 -18 79 -117 l 238 -18 q 274 -72 244 -51 q 353 -92 304 -92 q 471 42 471 -92 l 471 131 q 301 56 411 56 q 130 130 197 56 q 63 354 63 204 l 63 433 q 128 657 63 583 q 300 731 194 731 q 468 649 408 731 l 468 722 l 639 722 l 639 53 q 561 -152 639 -76 q 346 -228 483 -228 m 346 208 q 436 247 404 208 q 468 360 468 286 l 468 426 q 437 539 468 500 q 350 578 406 578 q 235 426 235 578 l 235 360 q 346 208 235 208 z "},"h":{"ha":722,"x_min":75,"x_max":647,"o":"m 75 958 l 247 958 l 247 658 q 322 713 279 694 q 414 731 365 731 q 586 662 525 731 q 647 471 647 593 l 647 0 l 475 0 l 475 450 q 444 545 475 513 q 363 578 414 578 q 280 544 313 578 q 247 450 247 511 l 247 0 l 75 0 l 75 958 z "},"i":{"ha":335,"x_min":79,"x_max":254,"o":"m 82 722 l 253 722 l 253 0 l 82 0 l 82 722 m 79 958 l 254 958 l 254 821 l 79 821 l 79 958 z "},"j":{"ha":335,"x_min":-46,"x_max":253,"o":"m 78 958 l 253 958 l 253 821 l 78 821 l 78 958 m -46 -68 l 13 -68 q 65 -49 49 -68 q 82 14 82 -29 l 82 722 l 253 722 l 253 3 q 196 -160 253 -103 q 35 -217 139 -217 l -46 -217 l -46 -68 z "},"k":{"ha":722,"x_min":75,"x_max":703,"o":"m 324 303 l 247 214 l 247 0 l 75 0 l 75 958 l 247 958 l 247 422 l 481 722 l 685 722 l 438 435 l 703 0 l 494 0 l 324 303 z "},"l":{"ha":399,"x_min":74,"x_max":374,"o":"m 294 0 q 133 57 190 0 q 75 219 75 114 l 75 958 l 247 958 l 247 231 q 263 167 247 186 q 315 149 279 149 l 374 149 l 374 0 l 294 0 z "},"m":{"ha":1122,"x_min":75,"x_max":1047,"o":"m 75 722 l 243 722 l 243 657 q 320 711 275 692 q 414 731 365 731 q 599 640 535 731 q 803 731 682 731 q 983 661 918 731 q 1047 471 1047 592 l 1047 0 l 875 0 l 875 450 q 844 545 875 513 q 763 578 813 578 q 678 544 710 578 q 647 454 647 510 l 647 0 l 475 0 l 475 450 q 444 545 475 513 q 363 578 413 578 q 279 544 311 578 q 247 450 247 511 l 247 0 l 75 0 l 75 722 z "},"n":{"ha":722,"x_min":75,"x_max":647,"o":"m 75 722 l 243 722 l 243 657 q 320 712 275 693 q 414 731 365 731 q 586 661 525 731 q 647 471 647 592 l 647 0 l 475 0 l 475 450 q 444 544 475 511 q 363 578 414 578 q 280 544 313 578 q 247 450 247 511 l 247 0 l 75 0 l 75 722 z "},"o":{"ha":708,"x_min":61,"x_max":646,"o":"m 356 -8 q 141 65 219 -8 q 63 294 63 139 l 63 429 q 141 657 63 583 q 356 731 219 731 q 568 657 490 731 q 646 429 646 583 l 646 294 q 568 65 646 139 q 356 -8 490 -8 m 475 296 l 475 426 q 356 578 475 578 q 233 426 233 578 l 233 296 q 356 144 233 144 q 475 296 475 144 z "},"p":{"ha":715,"x_min":75,"x_max":654,"o":"m 75 722 l 243 722 l 243 649 q 408 731 307 731 q 585 657 517 731 q 653 433 653 583 l 653 290 q 585 66 653 140 q 414 -8 517 -8 q 247 65 307 -8 l 247 -217 l 75 -217 l 75 722 m 481 296 l 481 426 q 449 542 481 507 q 365 578 418 578 q 278 539 310 578 q 246 426 246 500 l 246 296 q 278 183 246 222 q 369 144 311 144 q 481 296 481 144 z "},"q":{"ha":714,"x_min":63,"x_max":639,"o":"m 468 65 q 301 -8 408 -8 q 130 66 197 -8 q 63 290 63 140 l 63 433 q 130 657 63 583 q 306 731 197 731 q 471 649 410 731 l 471 722 l 639 722 l 639 -217 l 468 -217 l 468 65 m 346 144 q 436 183 404 144 q 468 296 468 222 l 468 426 q 437 539 468 500 q 350 578 406 578 q 235 426 235 578 l 235 296 q 346 144 235 144 z "},"r":{"ha":497,"x_min":75,"x_max":472,"o":"m 75 722 l 243 722 l 243 647 q 314 715 269 693 q 414 738 358 738 q 472 732 446 738 l 472 571 q 386 586 424 586 q 285 547 324 586 q 247 433 247 507 l 247 0 l 75 0 l 75 722 z "},"s":{"ha":658,"x_min":49,"x_max":614,"o":"m 324 -8 q 125 52 200 -8 q 50 214 50 113 l 50 219 l 211 219 l 211 217 q 244 153 211 176 q 329 131 276 131 q 418 151 386 131 q 450 211 450 171 q 426 263 450 244 q 347 289 403 281 l 271 301 q 111 368 163 319 q 60 507 60 417 q 135 670 60 610 q 329 731 211 731 q 472 703 410 731 q 567 628 533 676 q 601 521 601 581 l 601 513 l 442 513 l 442 517 q 412 575 442 554 q 329 596 382 596 q 249 575 276 596 q 221 519 221 554 q 242 469 221 488 q 313 444 264 451 l 397 432 q 560 365 506 417 q 614 224 614 314 q 533 52 614 113 q 324 -8 453 -8 z "},"t":{"ha":489,"x_min":35,"x_max":444,"o":"m 306 601 l 306 219 q 376 146 306 146 l 431 146 l 431 0 l 349 0 q 192 56 250 0 q 135 208 135 113 l 135 601 l 35 601 l 35 722 l 135 722 l 135 864 l 306 924 l 306 722 l 444 722 l 444 601 l 306 601 z "},"u":{"ha":722,"x_min":75,"x_max":647,"o":"m 75 292 l 75 722 l 247 722 l 247 300 q 270 184 247 224 q 361 144 293 144 q 452 182 429 144 q 475 300 475 219 l 475 722 l 647 722 l 647 292 q 576 67 647 142 q 361 -8 506 -8 q 75 292 75 -8 z "},"v":{"ha":668,"x_min":13,"x_max":656,"o":"m 13 722 l 194 722 l 335 264 l 474 722 l 656 722 l 404 0 l 263 0 l 13 722 z "},"w":{"ha":1022,"x_min":13,"x_max":1010,"o":"m 13 722 l 194 722 l 307 264 l 446 722 l 575 722 l 714 264 l 826 722 l 1010 722 l 797 0 l 651 0 l 510 468 l 369 0 l 224 0 l 13 722 z "},"x":{"ha":638,"x_min":13,"x_max":625,"o":"m 446 0 l 313 228 l 193 0 l 13 0 l 229 372 l 25 722 l 206 722 l 325 517 l 432 722 l 613 722 l 406 378 l 625 0 l 446 0 z "},"y":{"ha":669,"x_min":13,"x_max":657,"o":"m 657 722 l 383 -62 q 303 -178 356 -142 q 165 -214 251 -214 l 106 -214 l 106 -60 l 160 -60 q 222 -45 201 -60 q 254 10 242 -31 l 257 19 l 13 722 l 194 722 l 336 268 l 481 722 l 657 722 z "},"z":{"ha":632,"x_min":63,"x_max":569,"o":"m 569 578 l 250 144 l 569 144 l 569 0 l 63 0 l 63 144 l 382 578 l 63 578 l 63 722 l 569 722 l 569 578 z "},"{":{"ha":500,"x_min":63,"x_max":438,"o":"m 340 -117 q 213 -73 257 -117 q 168 54 168 -29 l 168 274 q 144 358 168 332 q 63 385 121 385 l 63 532 q 144 558 121 532 q 168 643 168 585 l 168 858 q 213 984 168 940 q 340 1028 257 1028 l 438 1028 l 438 889 l 389 889 q 331 828 331 889 l 331 635 q 309 516 331 556 q 232 458 288 476 q 309 400 288 439 q 331 282 331 361 l 331 83 q 389 22 331 22 l 438 22 l 438 -117 l 340 -117 z "},"|":{"ha":410,"x_min":125,"x_max":285,"o":"m 125 1028 l 285 1028 l 285 -117 l 125 -117 l 125 1028 z "},"}":{"ha":500,"x_min":63,"x_max":438,"o":"m 63 22 l 111 22 q 171 83 171 22 l 171 282 q 192 400 171 361 q 269 458 214 439 q 192 516 214 476 q 171 635 171 556 l 171 828 q 111 889 171 889 l 63 889 l 63 1028 l 161 1028 q 288 984 244 1028 q 332 858 332 940 l 332 643 q 356 558 332 585 q 438 532 381 532 l 438 385 q 356 358 381 385 q 332 274 332 332 l 332 54 q 288 -73 332 -29 q 161 -117 244 -117 l 63 -117 l 63 22 z "},"~":{"ha":735,"x_min":53,"x_max":682,"o":"m 482 271 q 416 283 446 271 q 349 317 386 294 q 297 342 315 335 q 260 350 279 350 q 209 332 231 350 q 165 272 188 314 l 54 340 q 139 453 88 414 q 253 492 190 492 q 318 481 289 492 q 386 447 347 469 q 436 422 417 431 q 476 414 456 414 q 528 432 507 414 q 571 492 550 450 l 682 424 q 598 310 650 350 q 482 271 546 271 z "}," ":{"ha":318,"x_min":0,"x_max":0,"o":""},"¡":{"ha":346,"x_min":75,"x_max":271,"o":"m 81 722 l 265 722 l 265 540 l 81 540 l 81 722 m 108 403 l 238 403 l 271 -217 l 75 -217 l 108 403 z "},"¢":{"ha":760,"x_min":63,"x_max":639,"o":"m 475 460 l 475 468 q 444 549 475 519 q 358 578 413 578 q 233 426 233 578 l 233 296 q 266 179 233 214 q 358 144 299 144 q 444 172 413 144 q 475 250 475 200 l 475 258 l 639 258 l 639 249 q 583 81 639 147 q 428 -3 528 15 l 428 -139 l 346 -139 l 346 -8 q 138 68 214 -6 q 63 294 63 142 l 63 429 q 138 654 63 581 q 346 731 214 728 l 346 882 l 428 882 l 428 725 q 584 642 529 707 q 639 474 639 576 l 639 460 l 475 460 z "},"£":{"ha":647,"x_min":35,"x_max":613,"o":"m 260 157 l 613 157 l 613 0 l 60 0 l 60 150 q 107 194 93 165 q 121 279 121 224 l 121 383 l 35 383 l 35 542 l 121 542 l 121 711 q 186 904 121 836 q 372 972 251 972 q 548 913 483 972 q 613 742 613 853 l 443 742 q 425 798 443 778 q 375 818 407 818 q 322 795 340 818 q 303 732 303 772 l 303 542 l 483 542 l 483 383 l 303 383 l 303 297 q 260 157 303 204 z "},"¤":{"ha":826,"x_min":75,"x_max":751,"o":"m 558 194 q 413 156 493 156 q 267 194 332 156 l 176 104 l 75 206 l 167 297 q 131 439 131 358 q 168 581 131 514 l 75 674 l 176 775 l 268 683 q 413 721 335 721 q 557 683 490 721 l 650 775 l 750 674 l 658 581 q 696 439 696 514 q 660 296 696 360 l 751 204 l 650 103 l 558 194 m 413 292 q 515 334 475 292 q 556 439 556 376 q 515 543 556 501 q 413 585 475 585 q 311 543 351 585 q 271 439 271 501 q 311 334 271 376 q 413 292 351 292 z "},"¥":{"ha":690,"x_min":10,"x_max":681,"o":"m 254 163 l 75 163 l 75 285 l 254 285 l 254 361 l 75 361 l 75 483 l 225 483 l 10 958 l 197 958 l 349 574 l 494 958 l 681 958 l 465 483 l 615 483 l 615 361 l 436 361 l 436 285 l 615 285 l 615 163 l 436 163 l 436 0 l 254 0 l 254 163 z "},"¦":{"ha":410,"x_min":125,"x_max":285,"o":"m 125 1028 l 285 1028 l 285 539 l 125 539 l 125 1028 m 125 375 l 285 375 l 285 -117 l 125 -117 l 125 375 z "},"§":{"ha":710,"x_min":82,"x_max":628,"o":"m 350 -233 q 165 -171 229 -233 q 101 6 101 -108 l 258 6 q 347 -92 258 -92 q 413 -69 390 -92 q 435 -10 435 -47 q 403 68 435 40 q 286 119 372 96 q 132 213 182 149 q 82 382 82 278 q 114 510 82 454 q 203 596 146 565 q 133 668 154 624 q 113 772 113 713 q 143 885 113 835 q 229 965 174 936 q 358 994 285 994 q 541 931 479 994 q 603 757 603 867 l 447 757 q 361 853 447 853 q 300 831 322 853 q 278 771 278 808 q 309 697 278 722 q 424 647 340 671 q 578 553 528 618 q 628 385 628 489 q 594 256 628 313 q 506 172 561 199 q 579 98 558 142 q 600 -14 600 54 q 532 -172 600 -110 q 350 -233 464 -233 m 356 261 q 433 294 406 261 q 461 383 461 326 q 433 473 461 440 q 356 506 406 506 q 276 474 304 506 q 247 383 247 442 q 276 293 247 325 q 356 261 304 261 m 219 982 z "},"¨":{"ha":694,"x_min":139,"x_max":554,"o":"m 139 976 l 288 976 l 288 815 l 139 815 l 139 976 m 406 976 l 554 976 l 554 815 l 406 815 l 406 976 z "},"©":{"ha":1089,"x_min":69,"x_max":1021,"o":"m 544 -12 q 473 -12 544 -12 q 294 49 401 -12 q 128 220 186 110 q 69 475 69 331 q 128 731 69 621 q 294 902 186 842 q 544 963 401 963 q 795 901 688 963 q 961 730 903 840 q 1019 475 1019 619 q 961 220 1019 331 q 795 49 903 110 q 544 -12 688 -12 m 544 94 q 629 94 544 94 q 810 197 714 94 q 907 475 907 299 q 810 754 907 651 q 544 857 714 857 q 278 754 375 857 q 182 475 182 651 q 278 197 182 299 q 544 94 375 94 m 547 206 q 392 259 449 206 q 335 426 335 313 l 335 524 q 392 690 335 636 q 547 744 449 744 q 699 694 644 744 q 754 557 754 644 l 754 547 l 635 547 l 635 553 q 612 612 635 590 q 550 633 589 633 q 458 522 458 633 l 458 428 q 482 342 458 367 q 550 317 506 317 q 613 337 590 317 q 635 394 635 357 l 635 400 l 754 400 l 754 393 q 699 256 754 307 q 547 206 643 206 z "},"ª":{"ha":490,"x_min":49,"x_max":418,"o":"m 233 1039 q 369 999 322 1039 q 417 881 417 960 l 417 597 l 297 597 l 297 632 q 251 601 274 610 q 196 592 229 592 q 89 630 128 592 q 50 732 50 668 q 92 825 50 790 q 207 860 133 860 l 293 860 l 293 888 q 232 944 293 944 q 192 933 207 944 q 178 901 178 921 l 178 899 l 63 899 l 63 901 q 108 1003 63 967 q 233 1039 154 1039 m 225 693 q 277 708 261 693 q 293 756 293 724 l 293 776 l 226 776 q 169 736 169 776 q 183 705 169 717 q 225 693 197 693 m 231 1176 z "},"«":{"ha":729,"x_min":25,"x_max":654,"o":"m 25 367 l 339 682 l 339 500 l 207 367 l 339 233 l 339 51 l 25 367 m 339 367 l 654 682 l 654 500 l 521 367 l 654 233 l 654 51 l 339 367 z "},"¬":{"ha":735,"x_min":69,"x_max":664,"o":"m 493 353 l 69 353 l 69 507 l 664 507 l 664 167 l 493 167 l 493 353 z "},"­":{"ha":507,"x_min":63,"x_max":444,"o":"m 63 560 l 444 560 l 444 400 l 63 400 l 63 560 z "},"®":{"ha":688,"x_min":82,"x_max":606,"o":"m 343 428 q 306 428 343 428 q 209 463 268 428 q 116 558 150 497 q 82 694 82 619 q 116 830 82 769 q 210 925 150 890 q 343 960 269 960 q 478 925 418 960 q 572 829 538 890 q 606 694 606 768 q 572 558 606 619 q 478 463 538 497 q 343 428 418 428 m 343 483 q 490 542 433 483 q 546 694 546 601 q 489 846 546 788 q 343 904 432 904 q 197 846 254 904 q 140 694 140 788 q 197 542 140 601 q 343 483 254 483 m 236 843 l 358 843 q 438 819 410 843 q 465 751 465 796 q 414 668 465 693 l 472 549 l 394 549 l 343 657 l 308 657 l 308 549 l 236 549 l 236 843 m 354 718 q 393 750 393 718 q 354 782 393 782 l 308 782 l 308 718 l 354 718 z "},"¯":{"ha":694,"x_min":151,"x_max":543,"o":"m 151 972 l 543 972 l 543 819 l 151 819 l 151 972 z "},"°":{"ha":547,"x_min":68,"x_max":478,"o":"m 274 565 q 128 624 186 565 q 69 769 69 682 q 96 873 69 826 q 169 947 122 919 q 274 974 217 974 q 377 947 331 974 q 451 873 424 919 q 478 769 478 826 q 451 665 478 713 q 377 592 424 618 q 274 565 331 565 m 274 669 q 342 698 315 669 q 369 769 369 726 q 342 841 369 813 q 274 869 315 869 q 204 842 231 869 q 178 769 178 814 q 204 697 178 725 q 274 669 231 669 z "},"±":{"ha":735,"x_min":67,"x_max":668,"o":"m 289 390 l 67 390 l 67 549 l 289 549 l 289 771 l 447 771 l 447 549 l 668 549 l 668 390 l 447 390 l 447 168 l 289 168 l 289 390 m 67 108 l 668 108 l 668 -50 l 67 -50 l 67 108 z "},"²":{"ha":481,"x_min":57,"x_max":425,"o":"m 61 708 l 251 946 q 279 1011 279 981 l 279 1021 q 268 1056 279 1043 q 236 1069 257 1069 q 206 1056 217 1069 q 194 1018 194 1042 l 194 1006 l 57 1006 l 57 1026 q 107 1144 57 1099 q 243 1189 157 1189 q 375 1142 325 1189 q 425 1028 425 1094 l 425 1013 q 411 942 425 974 q 369 878 397 911 l 242 721 l 425 721 l 425 597 l 61 597 l 61 708 z "},"³":{"ha":474,"x_min":51,"x_max":418,"o":"m 236 588 q 99 628 147 588 q 51 744 51 668 l 51 765 l 181 765 l 181 751 q 232 706 181 706 q 267 720 254 706 q 281 761 281 735 l 281 774 q 221 836 281 836 l 192 836 l 192 954 l 219 954 q 258 968 244 954 q 271 1007 271 982 l 271 1018 q 228 1069 271 1069 q 182 1026 182 1069 l 182 1011 l 54 1011 l 54 1025 q 101 1146 54 1103 q 233 1189 149 1189 q 362 1146 315 1189 q 408 1031 408 1103 l 408 1018 q 344 907 408 943 q 399 858 381 893 q 418 776 418 824 l 418 761 q 367 635 418 682 q 236 588 315 588 z "},"´":{"ha":694,"x_min":176,"x_max":517,"o":"m 326 1001 l 517 1001 l 325 817 l 176 817 l 326 1001 z "},"µ":{"ha":722,"x_min":75,"x_max":647,"o":"m 75 722 l 247 722 l 247 272 q 278 178 247 211 q 360 144 308 144 q 442 178 410 144 q 475 272 475 211 l 475 722 l 647 722 l 647 0 l 479 0 l 479 65 q 335 -8 425 -8 q 246 14 286 -8 l 246 -217 l 75 -217 l 75 722 z "},"¶":{"ha":894,"x_min":81,"x_max":771,"o":"m 356 351 q 213 397 275 357 q 117 505 151 438 q 82 656 82 572 q 120 810 82 740 q 229 919 158 879 q 397 958 300 958 l 771 958 l 771 -217 l 622 -217 l 622 819 l 508 819 l 508 -217 l 356 -217 l 356 351 z "},"·":{"ha":299,"x_min":53,"x_max":246,"o":"m 53 486 l 246 486 l 246 289 l 53 289 l 53 486 z "},"¸":{"ha":694,"x_min":217,"x_max":449,"o":"m 313 18 l 449 18 l 375 -217 l 217 -217 l 313 18 z "},"¹":{"ha":351,"x_min":40,"x_max":278,"o":"m 135 1024 l 40 957 l 40 1110 l 136 1179 l 278 1179 l 278 597 l 135 597 l 135 1024 z "},"º":{"ha":493,"x_min":60,"x_max":435,"o":"m 247 592 q 203 592 247 592 q 110 638 160 592 q 60 776 60 683 l 60 856 q 110 994 60 949 q 247 1039 160 1039 q 384 994 335 1039 q 433 856 433 949 l 433 776 q 384 638 433 683 q 247 592 335 592 m 308 776 l 308 854 q 246 928 308 928 q 183 854 183 928 l 183 776 q 246 703 183 703 q 308 776 308 703 m 231 1176 z "},"»":{"ha":729,"x_min":75,"x_max":704,"o":"m 75 233 l 208 367 l 75 500 l 75 682 l 390 367 l 75 51 l 75 233 m 390 233 l 522 367 l 390 500 l 390 682 l 704 367 l 390 51 l 390 233 z "},"¼":{"ha":1117,"x_min":40,"x_max":1082,"o":"m 135 803 l 40 736 l 40 889 l 136 958 l 278 958 l 278 376 l 135 376 l 135 803 m 1082 79 l 1044 79 l 1044 0 l 901 0 l 901 79 l 676 79 l 676 203 l 836 582 l 979 582 l 819 203 l 901 203 l 901 325 l 1044 325 l 1044 203 l 1082 203 l 1082 79 m 692 965 l 829 965 l 293 0 l 157 0 l 692 965 z "},"½":{"ha":1115,"x_min":40,"x_max":1060,"o":"m 135 803 l 40 736 l 40 889 l 136 958 l 278 958 l 278 376 l 135 376 l 135 803 m 696 111 l 886 349 q 914 414 914 383 l 914 424 q 903 459 914 446 q 871 472 892 472 q 840 458 851 472 q 829 421 829 444 l 829 408 l 692 408 l 692 429 q 742 547 692 501 q 878 592 792 592 q 1010 544 960 592 q 1060 431 1060 497 l 1060 415 q 1046 345 1060 376 q 1004 281 1032 314 l 876 124 l 1060 124 l 1060 0 l 696 0 l 696 111 m 692 965 l 829 965 l 293 0 l 157 0 l 692 965 z "},"¾":{"ha":1239,"x_min":51,"x_max":1204,"o":"m 236 367 q 99 407 147 367 q 51 524 51 447 l 51 544 l 181 544 l 181 531 q 232 485 181 485 q 267 499 254 485 q 281 540 281 514 l 281 553 q 221 615 281 615 l 192 615 l 192 733 l 219 733 q 258 747 244 733 q 271 786 271 761 l 271 797 q 228 849 271 849 q 182 806 182 849 l 182 790 l 54 790 l 54 804 q 101 925 54 882 q 233 968 149 968 q 362 925 315 968 q 408 810 408 882 l 408 797 q 344 686 408 722 q 399 638 381 672 q 418 556 418 603 l 418 540 q 367 414 418 461 q 236 367 315 367 m 1204 79 l 1167 79 l 1167 0 l 1024 0 l 1024 79 l 799 79 l 799 203 l 958 582 l 1101 582 l 942 203 l 1024 203 l 1024 325 l 1167 325 l 1167 203 l 1204 203 l 1204 79 m 814 965 l 951 965 l 415 0 l 279 0 l 814 965 z "},"¿":{"ha":626,"x_min":47,"x_max":589,"o":"m 232 722 l 413 722 l 413 542 l 232 542 l 232 722 m 318 -231 q 176 -199 238 -231 q 81 -112 114 -168 q 47 13 47 -57 q 65 114 47 69 q 125 208 82 158 l 186 279 q 227 342 218 317 q 236 408 236 367 l 236 449 l 408 449 l 408 396 q 397 301 408 336 q 340 215 385 267 l 275 139 q 236 79 247 106 q 225 22 225 53 q 250 -49 225 -22 q 324 -75 275 -75 q 397 -47 374 -75 q 421 36 419 -19 l 589 36 q 517 -162 586 -94 q 318 -231 447 -231 z "},"À":{"ha":842,"x_min":6,"x_max":836,"o":"m 585 186 l 256 186 l 197 0 l 6 0 l 346 958 l 494 958 l 836 0 l 643 0 l 585 186 m 536 338 l 419 706 l 304 338 l 536 338 m 200 1238 l 390 1238 l 540 1053 l 392 1053 l 200 1238 z "},"Á":{"ha":842,"x_min":6,"x_max":836,"o":"m 585 186 l 256 186 l 197 0 l 6 0 l 346 958 l 494 958 l 836 0 l 643 0 l 585 186 m 536 338 l 419 706 l 304 338 l 536 338 m 442 1238 l 632 1238 l 440 1053 l 292 1053 l 442 1238 z "},"Â":{"ha":842,"x_min":6,"x_max":836,"o":"m 585 186 l 256 186 l 197 0 l 6 0 l 346 958 l 494 958 l 836 0 l 643 0 l 585 186 m 536 338 l 419 706 l 304 338 l 536 338 m 357 1247 l 483 1247 l 643 1038 l 508 1038 l 421 1146 l 333 1038 l 197 1038 l 357 1247 z "},"Ã":{"ha":842,"x_min":6,"x_max":836,"o":"m 585 186 l 256 186 l 197 0 l 6 0 l 346 958 l 494 958 l 836 0 l 643 0 l 585 186 m 536 338 l 419 706 l 304 338 l 536 338 m 224 1169 q 280 1215 256 1201 q 336 1229 304 1229 q 385 1222 364 1229 q 435 1200 406 1215 q 511 1176 479 1176 q 560 1188 539 1176 q 617 1232 581 1199 l 617 1106 q 560 1060 585 1074 q 504 1046 536 1046 q 457 1053 478 1046 q 407 1075 436 1060 q 331 1099 363 1099 q 282 1088 303 1099 q 224 1044 261 1076 l 224 1169 z "},"Ä":{"ha":842,"x_min":6,"x_max":836,"o":"m 585 186 l 256 186 l 197 0 l 6 0 l 346 958 l 494 958 l 836 0 l 643 0 l 585 186 m 536 338 l 419 706 l 304 338 l 536 338 m 213 1213 l 361 1213 l 361 1051 l 213 1051 l 213 1213 m 479 1213 l 628 1213 l 628 1051 l 479 1051 l 479 1213 z "},"Å":{"ha":842,"x_min":6,"x_max":836,"o":"m 585 186 l 256 186 l 197 0 l 6 0 l 346 958 q 297 1010 315 978 q 279 1081 279 1042 q 320 1184 279 1143 q 422 1225 361 1225 q 524 1184 483 1225 q 565 1081 565 1143 q 547 1008 565 1040 q 496 956 528 975 l 836 0 l 643 0 l 585 186 m 422 1149 q 408 1149 422 1149 q 376 1129 394 1149 q 358 1081 358 1110 q 377 1033 358 1053 q 422 1014 396 1014 q 469 1033 450 1014 q 488 1081 488 1053 q 469 1129 488 1110 q 422 1149 450 1149 m 536 338 l 419 706 l 304 338 l 536 338 m 421 938 z "},"Æ":{"ha":1226,"x_min":6,"x_max":1178,"o":"m 765 800 l 765 563 l 1115 563 l 1115 404 l 765 404 l 765 158 l 1178 158 l 1178 0 l 582 0 l 582 196 l 290 196 l 197 0 l 6 0 l 478 958 l 1178 958 l 1178 800 l 765 800 m 582 347 l 582 804 l 364 347 l 582 347 z "},"Ç":{"ha":833,"x_min":69,"x_max":765,"o":"m 582 644 l 582 653 q 540 769 582 726 q 419 813 497 813 q 292 758 332 813 q 253 581 253 704 l 253 374 q 294 204 253 257 q 422 151 335 151 q 541 193 500 151 q 582 307 582 235 l 582 318 l 761 318 l 761 308 q 696 99 761 178 q 513 -3 631 19 l 446 -217 l 288 -217 l 372 -10 q 69 371 69 17 l 69 590 q 421 972 69 972 q 671 889 578 972 q 764 654 764 806 l 764 644 l 582 644 z "},"È":{"ha":739,"x_min":82,"x_max":690,"o":"m 264 800 l 264 563 l 628 563 l 628 404 l 264 404 l 264 158 l 690 158 l 690 0 l 82 0 l 82 958 l 690 958 l 690 800 l 264 800 m 151 1238 l 342 1238 l 492 1053 l 343 1053 l 151 1238 z "},"É":{"ha":739,"x_min":82,"x_max":690,"o":"m 264 800 l 264 563 l 628 563 l 628 404 l 264 404 l 264 158 l 690 158 l 690 0 l 82 0 l 82 958 l 690 958 l 690 800 l 264 800 m 393 1238 l 583 1238 l 392 1053 l 243 1053 l 393 1238 z "},"Ê":{"ha":739,"x_min":82,"x_max":690,"o":"m 264 800 l 264 563 l 628 563 l 628 404 l 264 404 l 264 158 l 690 158 l 690 0 l 82 0 l 82 958 l 690 958 l 690 800 l 264 800 m 308 1247 l 435 1247 l 594 1038 l 460 1038 l 372 1146 l 285 1038 l 149 1038 l 308 1247 z "},"Ë":{"ha":739,"x_min":82,"x_max":690,"o":"m 264 800 l 264 563 l 628 563 l 628 404 l 264 404 l 264 158 l 690 158 l 690 0 l 82 0 l 82 958 l 690 958 l 690 800 l 264 800 m 164 1213 l 313 1213 l 313 1051 l 164 1051 l 164 1213 m 431 1213 l 579 1213 l 579 1051 l 431 1051 l 431 1213 z "},"Ì":{"ha":363,"x_min":-40,"x_max":300,"o":"m 90 958 l 272 958 l 272 0 l 90 0 l 90 958 m -40 1238 l 150 1238 l 300 1053 l 151 1053 l -40 1238 z "},"Í":{"ha":363,"x_min":51,"x_max":392,"o":"m 90 958 l 272 958 l 272 0 l 90 0 l 90 958 m 201 1238 l 392 1238 l 200 1053 l 51 1053 l 201 1238 z "},"Î":{"ha":363,"x_min":-43,"x_max":403,"o":"m 90 958 l 272 958 l 272 0 l 90 0 l 90 958 m 117 1247 l 243 1247 l 403 1038 l 268 1038 l 181 1146 l 93 1038 l -43 1038 l 117 1247 z "},"Ï":{"ha":363,"x_min":-28,"x_max":388,"o":"m 90 958 l 272 958 l 272 0 l 90 0 l 90 958 m -28 1213 l 121 1213 l 121 1051 l -28 1051 l -28 1213 m 239 1213 l 388 1213 l 388 1051 l 239 1051 l 239 1213 z "},"Ð":{"ha":878,"x_min":38,"x_max":808,"o":"m 464 958 q 716 869 624 958 q 808 578 808 781 l 808 382 q 714 90 808 179 q 458 0 619 0 l 126 0 l 126 408 l 38 408 l 38 568 l 126 568 l 126 958 l 464 958 m 626 568 q 586 745 626 690 q 463 800 546 800 l 308 800 l 308 568 l 472 568 l 472 408 l 308 408 l 308 158 l 463 158 q 585 213 544 158 q 626 383 626 267 l 626 568 z "},"Ñ":{"ha":881,"x_min":82,"x_max":799,"o":"m 799 958 l 799 0 l 617 0 l 264 599 l 264 0 l 82 0 l 82 958 l 264 958 l 617 358 l 617 958 l 799 958 m 243 1169 q 299 1215 275 1201 q 356 1229 324 1229 q 404 1222 383 1229 q 454 1200 425 1215 q 531 1176 499 1176 q 579 1188 558 1176 q 636 1232 600 1199 l 636 1106 q 580 1060 604 1074 q 524 1046 556 1046 q 476 1053 497 1046 q 426 1075 456 1060 q 350 1099 382 1099 q 301 1088 322 1099 q 243 1044 281 1076 l 243 1169 z "},"Ò":{"ha":833,"x_min":68,"x_max":765,"o":"m 69 371 l 69 590 q 418 972 69 972 q 671 883 578 972 q 764 590 764 793 l 764 371 q 669 78 764 168 q 413 -11 574 -11 q 69 371 69 -11 m 418 151 q 542 205 501 151 q 582 374 582 258 l 582 581 q 542 758 582 703 q 418 813 501 813 q 292 759 331 813 q 253 581 253 706 l 253 374 q 292 203 253 256 q 418 151 331 151 m 196 1238 l 386 1238 l 536 1053 l 388 1053 l 196 1238 z "},"Ó":{"ha":833,"x_min":68,"x_max":765,"o":"m 69 371 l 69 590 q 418 972 69 972 q 671 883 578 972 q 764 590 764 793 l 764 371 q 669 78 764 168 q 413 -11 574 -11 q 69 371 69 -11 m 418 151 q 542 205 501 151 q 582 374 582 258 l 582 581 q 542 758 582 703 q 418 813 501 813 q 292 759 331 813 q 253 581 253 706 l 253 374 q 292 203 253 256 q 418 151 331 151 m 438 1238 l 628 1238 l 436 1053 l 288 1053 l 438 1238 z "},"Ô":{"ha":833,"x_min":68,"x_max":765,"o":"m 69 371 l 69 590 q 418 972 69 972 q 671 883 578 972 q 764 590 764 793 l 764 371 q 669 78 764 168 q 413 -11 574 -11 q 69 371 69 -11 m 418 151 q 542 205 501 151 q 582 374 582 258 l 582 581 q 542 758 582 703 q 418 813 501 813 q 292 759 331 813 q 253 581 253 706 l 253 374 q 292 203 253 256 q 418 151 331 151 m 353 1247 l 479 1247 l 639 1038 l 504 1038 l 417 1146 l 329 1038 l 193 1038 l 353 1247 z "},"Õ":{"ha":833,"x_min":68,"x_max":765,"o":"m 69 371 l 69 590 q 418 972 69 972 q 671 883 578 972 q 764 590 764 793 l 764 371 q 669 78 764 168 q 413 -11 574 -11 q 69 371 69 -11 m 418 151 q 542 205 501 151 q 582 374 582 258 l 582 581 q 542 758 582 703 q 418 813 501 813 q 292 759 331 813 q 253 581 253 706 l 253 374 q 292 203 253 256 q 418 151 331 151 m 219 1169 q 276 1215 251 1201 q 332 1229 300 1229 q 381 1222 360 1229 q 431 1200 401 1215 q 507 1176 475 1176 q 556 1188 535 1176 q 613 1232 576 1199 l 613 1106 q 556 1060 581 1074 q 500 1046 532 1046 q 453 1053 474 1046 q 403 1075 432 1060 q 326 1099 358 1099 q 278 1088 299 1099 q 219 1044 257 1076 l 219 1169 z "},"Ö":{"ha":833,"x_min":68,"x_max":765,"o":"m 69 371 l 69 590 q 418 972 69 972 q 671 883 578 972 q 764 590 764 793 l 764 371 q 669 78 764 168 q 413 -11 574 -11 q 69 371 69 -11 m 418 151 q 542 205 501 151 q 582 374 582 258 l 582 581 q 542 758 582 703 q 418 813 501 813 q 292 759 331 813 q 253 581 253 706 l 253 374 q 292 203 253 256 q 418 151 331 151 m 208 1213 l 357 1213 l 357 1051 l 208 1051 l 208 1213 m 475 1213 l 624 1213 l 624 1051 l 475 1051 l 475 1213 z "},"×":{"ha":735,"x_min":96,"x_max":639,"o":"m 96 218 l 261 383 l 96 550 l 201 656 l 368 490 l 533 656 l 639 549 l 474 383 l 639 218 l 533 111 l 368 278 l 201 111 l 96 218 z "},"Ø":{"ha":833,"x_min":69,"x_max":765,"o":"m 688 863 q 764 590 764 768 l 764 371 q 669 78 764 168 q 413 -11 574 -11 q 208 39 289 -11 l 169 -28 l 69 -28 l 143 99 q 69 371 69 192 l 69 590 q 418 972 69 972 q 624 921 543 972 l 665 993 l 764 993 l 688 863 m 258 296 l 533 768 q 418 813 494 813 q 292 759 331 813 q 253 581 253 706 l 253 374 q 258 296 253 325 m 575 669 l 299 194 q 418 151 340 151 q 542 205 501 151 q 582 374 582 258 l 582 581 q 575 669 582 625 z "},"Ù":{"ha":853,"x_min":82,"x_max":772,"o":"m 425 -8 q 249 33 328 -8 q 126 148 171 74 q 82 317 82 222 l 82 958 l 264 958 l 264 322 q 307 195 264 240 q 425 150 350 150 q 544 195 500 150 q 588 322 588 240 l 588 958 l 771 958 l 771 317 q 726 148 771 222 q 602 33 681 74 q 425 -8 524 -8 m 206 1238 l 396 1238 l 546 1053 l 397 1053 l 206 1238 z "},"Ú":{"ha":853,"x_min":82,"x_max":772,"o":"m 425 -8 q 249 33 328 -8 q 126 148 171 74 q 82 317 82 222 l 82 958 l 264 958 l 264 322 q 307 195 264 240 q 425 150 350 150 q 544 195 500 150 q 588 322 588 240 l 588 958 l 771 958 l 771 317 q 726 148 771 222 q 602 33 681 74 q 425 -8 524 -8 m 447 1238 l 638 1238 l 446 1053 l 297 1053 l 447 1238 z "},"Û":{"ha":853,"x_min":82,"x_max":772,"o":"m 425 -8 q 249 33 328 -8 q 126 148 171 74 q 82 317 82 222 l 82 958 l 264 958 l 264 322 q 307 195 264 240 q 425 150 350 150 q 544 195 500 150 q 588 322 588 240 l 588 958 l 771 958 l 771 317 q 726 148 771 222 q 602 33 681 74 q 425 -8 524 -8 m 363 1247 l 489 1247 l 649 1038 l 514 1038 l 426 1146 l 339 1038 l 203 1038 l 363 1247 z "},"Ü":{"ha":853,"x_min":82,"x_max":772,"o":"m 425 -8 q 249 33 328 -8 q 126 148 171 74 q 82 317 82 222 l 82 958 l 264 958 l 264 322 q 307 195 264 240 q 425 150 350 150 q 544 195 500 150 q 588 322 588 240 l 588 958 l 771 958 l 771 317 q 726 148 771 222 q 602 33 681 74 q 425 -8 524 -8 m 218 1213 l 367 1213 l 367 1051 l 218 1051 l 218 1213 m 485 1213 l 633 1213 l 633 1051 l 485 1051 l 485 1213 z "},"Ý":{"ha":751,"x_min":6,"x_max":746,"o":"m 467 394 l 467 0 l 285 0 l 285 393 l 6 958 l 204 958 l 375 569 l 546 958 l 746 958 l 467 394 m 396 1238 l 586 1238 l 394 1053 l 246 1053 l 396 1238 z "},"Þ":{"ha":788,"x_min":82,"x_max":754,"o":"m 440 800 q 670 719 586 800 q 754 499 754 639 q 670 286 754 365 q 440 207 586 207 l 264 207 l 264 0 l 82 0 l 82 958 l 264 958 l 264 800 l 440 800 m 432 365 q 535 400 497 365 q 572 499 572 435 q 535 605 572 568 q 432 642 499 642 l 264 642 l 264 365 l 432 365 z "},"ß":{"ha":728,"x_min":75,"x_max":665,"o":"m 353 139 l 397 139 q 464 156 443 139 q 490 209 485 174 q 494 319 494 244 q 488 429 494 393 q 458 484 482 465 q 385 503 435 503 l 353 503 l 353 646 l 396 646 q 462 668 442 646 q 482 735 482 690 q 454 803 482 782 q 368 825 426 825 q 276 797 306 825 q 247 707 247 768 l 247 0 l 75 0 l 75 692 q 144 901 75 829 q 367 972 214 972 q 578 913 503 972 q 653 743 653 853 q 634 648 653 688 q 574 581 615 608 q 633 527 614 558 q 659 448 653 496 q 665 317 665 400 q 645 124 665 192 q 571 26 625 57 q 410 -6 517 -6 l 353 -6 l 353 139 z "},"à":{"ha":696,"x_min":49,"x_max":621,"o":"m 336 731 q 547 666 474 731 q 621 475 621 601 l 621 0 l 454 0 l 454 63 q 380 8 418 25 q 283 -8 342 -8 q 111 51 172 -8 q 50 217 50 111 q 115 370 50 314 q 297 426 181 426 l 450 426 l 450 483 q 335 599 450 599 q 258 574 286 599 q 229 510 229 550 l 229 506 l 69 506 l 69 511 q 142 672 69 613 q 336 731 214 731 m 322 131 q 420 162 390 131 q 450 257 450 193 l 450 308 l 325 308 q 217 221 217 308 q 322 131 217 131 m 115 1001 l 306 1001 l 456 817 l 307 817 l 115 1001 z "},"á":{"ha":696,"x_min":49,"x_max":621,"o":"m 336 731 q 547 666 474 731 q 621 475 621 601 l 621 0 l 454 0 l 454 63 q 380 8 418 25 q 283 -8 342 -8 q 111 51 172 -8 q 50 217 50 111 q 115 370 50 314 q 297 426 181 426 l 450 426 l 450 483 q 335 599 450 599 q 258 574 286 599 q 229 510 229 550 l 229 506 l 69 506 l 69 511 q 142 672 69 613 q 336 731 214 731 m 322 131 q 420 162 390 131 q 450 257 450 193 l 450 308 l 325 308 q 217 221 217 308 q 322 131 217 131 m 357 1001 l 547 1001 l 356 817 l 207 817 l 357 1001 z "},"â":{"ha":696,"x_min":49,"x_max":621,"o":"m 336 731 q 547 666 474 731 q 621 475 621 601 l 621 0 l 454 0 l 454 63 q 380 8 418 25 q 283 -8 342 -8 q 111 51 172 -8 q 50 217 50 111 q 115 370 50 314 q 297 426 181 426 l 450 426 l 450 483 q 335 599 450 599 q 258 574 286 599 q 229 510 229 550 l 229 506 l 69 506 l 69 511 q 142 672 69 613 q 336 731 214 731 m 322 131 q 420 162 390 131 q 450 257 450 193 l 450 308 l 325 308 q 217 221 217 308 q 322 131 217 131 m 272 1011 l 399 1011 l 558 801 l 424 801 l 336 910 l 249 801 l 113 801 l 272 1011 z "},"ã":{"ha":696,"x_min":49,"x_max":621,"o":"m 336 731 q 547 666 474 731 q 621 475 621 601 l 621 0 l 454 0 l 454 63 q 380 8 418 25 q 283 -8 342 -8 q 111 51 172 -8 q 50 217 50 111 q 115 370 50 314 q 297 426 181 426 l 450 426 l 450 483 q 335 599 450 599 q 258 574 286 599 q 229 510 229 550 l 229 506 l 69 506 l 69 511 q 142 672 69 613 q 336 731 214 731 m 322 131 q 420 162 390 131 q 450 257 450 193 l 450 308 l 325 308 q 217 221 217 308 q 322 131 217 131 m 139 933 q 195 979 171 965 q 251 993 219 993 q 300 986 279 993 q 350 964 321 979 q 426 940 394 940 q 475 951 454 940 q 532 996 496 963 l 532 869 q 476 824 500 838 q 419 810 451 810 q 372 817 393 810 q 322 839 351 824 q 246 863 278 863 q 197 851 218 863 q 139 808 176 840 l 139 933 z "},"ä":{"ha":696,"x_min":49,"x_max":621,"o":"m 336 731 q 547 666 474 731 q 621 475 621 601 l 621 0 l 454 0 l 454 63 q 380 8 418 25 q 283 -8 342 -8 q 111 51 172 -8 q 50 217 50 111 q 115 370 50 314 q 297 426 181 426 l 450 426 l 450 483 q 335 599 450 599 q 258 574 286 599 q 229 510 229 550 l 229 506 l 69 506 l 69 511 q 142 672 69 613 q 336 731 214 731 m 322 131 q 420 162 390 131 q 450 257 450 193 l 450 308 l 325 308 q 217 221 217 308 q 322 131 217 131 m 128 976 l 276 976 l 276 815 l 128 815 l 128 976 m 394 976 l 543 976 l 543 815 l 394 815 l 394 976 z "},"å":{"ha":696,"x_min":49,"x_max":621,"o":"m 336 731 q 547 666 474 731 q 621 475 621 601 l 621 0 l 454 0 l 454 63 q 380 8 418 25 q 283 -8 342 -8 q 111 51 172 -8 q 50 217 50 111 q 115 370 50 314 q 297 426 181 426 l 450 426 l 450 483 q 335 599 450 599 q 258 574 286 599 q 229 510 229 550 l 229 506 l 69 506 l 69 511 q 142 672 69 613 q 336 731 214 731 m 322 131 q 420 162 390 131 q 450 257 450 193 l 450 308 l 325 308 q 217 221 217 308 q 322 131 217 131 m 336 760 q 306 760 336 760 q 234 801 275 760 q 193 903 193 842 q 234 1006 193 965 q 336 1047 275 1047 q 438 1006 397 1047 q 479 903 479 965 q 438 801 479 842 q 336 760 397 760 m 336 836 q 383 856 364 836 q 401 903 401 875 q 383 951 401 932 q 336 971 364 971 q 290 951 308 971 q 272 903 272 932 q 291 856 272 875 q 336 836 310 836 z "},"æ":{"ha":1104,"x_min":49,"x_max":1042,"o":"m 621 290 q 656 175 621 210 q 758 140 692 140 q 838 162 808 140 q 872 222 868 183 l 872 226 l 1036 226 l 1036 219 q 1005 105 1036 157 q 913 22 974 53 q 764 -8 851 -8 q 536 79 619 -8 q 438 15 496 38 q 308 -8 381 -8 q 120 52 190 -8 q 50 217 50 113 q 115 370 50 314 q 297 426 181 426 l 450 426 l 450 483 q 335 599 450 599 q 258 574 286 599 q 229 510 229 550 l 229 506 l 69 506 l 69 511 q 142 672 69 613 q 336 731 214 731 q 547 661 471 731 q 747 731 625 731 q 962 649 882 731 q 1042 406 1042 567 l 1042 310 l 621 310 l 621 290 m 747 583 q 653 549 686 583 q 621 432 621 514 l 621 428 l 871 428 l 871 446 q 747 583 871 583 m 450 264 l 450 308 l 325 308 q 217 221 217 308 q 322 131 217 131 q 450 264 450 131 z "},"ç":{"ha":701,"x_min":63,"x_max":639,"o":"m 475 460 l 475 468 q 444 549 475 519 q 358 578 413 578 q 233 426 233 578 l 233 296 q 266 179 233 214 q 358 144 299 144 q 444 172 413 144 q 475 250 475 200 l 475 258 l 639 258 l 639 249 q 588 88 639 151 q 446 1 538 24 l 378 -217 l 219 -217 l 306 -6 q 127 81 192 7 q 63 294 63 154 l 63 429 q 141 657 63 583 q 356 731 219 731 q 564 663 489 731 q 639 474 639 594 l 639 460 l 475 460 z "},"è":{"ha":718,"x_min":63,"x_max":656,"o":"m 233 310 l 233 290 q 269 175 233 210 q 372 140 306 140 q 453 162 424 140 q 485 222 482 183 l 486 226 l 650 226 l 650 219 q 574 54 650 117 q 365 -8 497 -8 q 144 72 226 -8 q 63 318 63 151 l 63 406 q 142 649 63 568 q 360 731 221 731 q 576 649 496 731 q 656 406 656 567 l 656 310 l 233 310 m 360 583 q 266 549 299 583 q 233 432 233 514 l 233 428 l 483 428 l 483 446 q 360 583 483 583 m 138 1001 l 328 1001 l 478 817 l 329 817 l 138 1001 z "},"é":{"ha":718,"x_min":63,"x_max":656,"o":"m 233 310 l 233 290 q 269 175 233 210 q 372 140 306 140 q 453 162 424 140 q 485 222 482 183 l 486 226 l 650 226 l 650 219 q 574 54 650 117 q 365 -8 497 -8 q 144 72 226 -8 q 63 318 63 151 l 63 406 q 142 649 63 568 q 360 731 221 731 q 576 649 496 731 q 656 406 656 567 l 656 310 l 233 310 m 360 583 q 266 549 299 583 q 233 432 233 514 l 233 428 l 483 428 l 483 446 q 360 583 483 583 m 379 1001 l 569 1001 l 378 817 l 229 817 l 379 1001 z "},"ê":{"ha":718,"x_min":63,"x_max":656,"o":"m 233 310 l 233 290 q 269 175 233 210 q 372 140 306 140 q 453 162 424 140 q 485 222 482 183 l 486 226 l 650 226 l 650 219 q 574 54 650 117 q 365 -8 497 -8 q 144 72 226 -8 q 63 318 63 151 l 63 406 q 142 649 63 568 q 360 731 221 731 q 576 649 496 731 q 656 406 656 567 l 656 310 l 233 310 m 360 583 q 266 549 299 583 q 233 432 233 514 l 233 428 l 483 428 l 483 446 q 360 583 483 583 m 294 1011 l 421 1011 l 581 801 l 446 801 l 358 910 l 271 801 l 135 801 l 294 1011 z "},"ë":{"ha":718,"x_min":63,"x_max":656,"o":"m 233 310 l 233 290 q 269 175 233 210 q 372 140 306 140 q 453 162 424 140 q 485 222 482 183 l 486 226 l 650 226 l 650 219 q 574 54 650 117 q 365 -8 497 -8 q 144 72 226 -8 q 63 318 63 151 l 63 406 q 142 649 63 568 q 360 731 221 731 q 576 649 496 731 q 656 406 656 567 l 656 310 l 233 310 m 360 583 q 266 549 299 583 q 233 432 233 514 l 233 428 l 483 428 l 483 446 q 360 583 483 583 m 150 976 l 299 976 l 299 815 l 150 815 l 150 976 m 417 976 l 565 976 l 565 815 l 417 815 l 417 976 z "},"ì":{"ha":335,"x_min":-54,"x_max":286,"o":"m 82 722 l 253 722 l 253 0 l 82 0 l 82 722 m -54 1001 l 136 1001 l 286 817 l 138 817 l -54 1001 z "},"í":{"ha":335,"x_min":38,"x_max":378,"o":"m 82 722 l 253 722 l 253 0 l 82 0 l 82 722 m 188 1001 l 378 1001 l 186 817 l 38 817 l 188 1001 z "},"î":{"ha":335,"x_min":-57,"x_max":389,"o":"m 82 722 l 253 722 l 253 0 l 82 0 l 82 722 m 103 1011 l 229 1011 l 389 801 l 254 801 l 167 910 l 79 801 l -57 801 l 103 1011 z "},"ï":{"ha":335,"x_min":-42,"x_max":374,"o":"m 82 722 l 253 722 l 253 0 l 82 0 l 82 722 m -42 976 l 107 976 l 107 815 l -42 815 l -42 976 m 225 976 l 374 976 l 374 815 l 225 815 l 225 976 z "},"ð":{"ha":707,"x_min":61,"x_max":644,"o":"m 499 743 q 609 547 574 636 q 644 360 644 458 l 644 303 q 568 67 644 150 q 351 -15 492 -15 q 138 66 213 -15 q 63 290 63 147 l 63 351 q 126 566 63 486 q 304 646 190 646 q 400 626 360 646 l 317 746 l 174 701 l 139 811 l 249 844 l 164 965 l 342 965 l 396 889 l 529 931 l 564 821 l 465 790 l 499 743 m 483 354 q 354 507 483 507 q 222 357 222 507 l 222 293 q 354 135 222 135 q 483 294 483 135 l 483 354 z "},"ñ":{"ha":722,"x_min":75,"x_max":647,"o":"m 75 722 l 243 722 l 243 657 q 320 712 275 693 q 414 731 365 731 q 586 661 525 731 q 647 471 647 592 l 647 0 l 475 0 l 475 450 q 444 544 475 511 q 363 578 414 578 q 280 544 313 578 q 247 450 247 511 l 247 0 l 75 0 l 75 722 m 164 933 q 220 979 196 965 q 276 993 244 993 q 325 986 304 993 q 375 964 346 979 q 451 940 419 940 q 500 951 479 940 q 557 996 521 963 l 557 869 q 501 824 525 838 q 444 810 476 810 q 397 817 418 810 q 347 839 376 824 q 271 863 303 863 q 222 851 243 863 q 164 808 201 840 l 164 933 z "},"ò":{"ha":708,"x_min":61,"x_max":646,"o":"m 356 -8 q 141 65 219 -8 q 63 294 63 139 l 63 429 q 141 657 63 583 q 356 731 219 731 q 568 657 490 731 q 646 429 646 583 l 646 294 q 568 65 646 139 q 356 -8 490 -8 m 475 296 l 475 426 q 356 578 475 578 q 233 426 233 578 l 233 296 q 356 144 233 144 q 475 296 475 144 m 135 1001 l 325 1001 l 475 817 l 326 817 l 135 1001 z "},"ó":{"ha":708,"x_min":61,"x_max":646,"o":"m 356 -8 q 141 65 219 -8 q 63 294 63 139 l 63 429 q 141 657 63 583 q 356 731 219 731 q 568 657 490 731 q 646 429 646 583 l 646 294 q 568 65 646 139 q 356 -8 490 -8 m 475 296 l 475 426 q 356 578 475 578 q 233 426 233 578 l 233 296 q 356 144 233 144 q 475 296 475 144 m 376 1001 l 567 1001 l 375 817 l 226 817 l 376 1001 z "},"ô":{"ha":708,"x_min":61,"x_max":646,"o":"m 356 -8 q 141 65 219 -8 q 63 294 63 139 l 63 429 q 141 657 63 583 q 356 731 219 731 q 568 657 490 731 q 646 429 646 583 l 646 294 q 568 65 646 139 q 356 -8 490 -8 m 475 296 l 475 426 q 356 578 475 578 q 233 426 233 578 l 233 296 q 356 144 233 144 q 475 296 475 144 m 292 1011 l 418 1011 l 578 801 l 443 801 l 356 910 l 268 801 l 132 801 l 292 1011 z "},"õ":{"ha":708,"x_min":61,"x_max":646,"o":"m 356 -8 q 141 65 219 -8 q 63 294 63 139 l 63 429 q 141 657 63 583 q 356 731 219 731 q 568 657 490 731 q 646 429 646 583 l 646 294 q 568 65 646 139 q 356 -8 490 -8 m 475 296 l 475 426 q 356 578 475 578 q 233 426 233 578 l 233 296 q 356 144 233 144 q 475 296 475 144 m 158 933 q 215 979 190 965 q 271 993 239 993 q 319 986 299 993 q 369 964 340 979 q 446 940 414 940 q 494 951 474 940 q 551 996 515 963 l 551 869 q 495 824 519 838 q 439 810 471 810 q 392 817 413 810 q 342 839 371 824 q 265 863 297 863 q 217 851 238 863 q 158 808 196 840 l 158 933 z "},"ö":{"ha":708,"x_min":61,"x_max":646,"o":"m 356 -8 q 141 65 219 -8 q 63 294 63 139 l 63 429 q 141 657 63 583 q 356 731 219 731 q 568 657 490 731 q 646 429 646 583 l 646 294 q 568 65 646 139 q 356 -8 490 -8 m 475 296 l 475 426 q 356 578 475 578 q 233 426 233 578 l 233 296 q 356 144 233 144 q 475 296 475 144 m 147 976 l 296 976 l 296 815 l 147 815 l 147 976 m 414 976 l 563 976 l 563 815 l 414 815 l 414 976 z "},"÷":{"ha":735,"x_min":67,"x_max":669,"o":"m 367 522 q 347 522 367 522 q 301 549 328 522 q 275 615 275 576 q 301 681 275 654 q 367 708 328 708 q 433 681 406 708 q 460 615 460 654 q 433 549 460 576 q 367 522 406 522 m 67 463 l 668 463 l 668 304 l 67 304 l 67 463 m 367 60 q 301 87 328 60 q 275 153 275 114 q 301 219 275 192 q 367 246 328 246 q 433 219 406 246 q 460 153 460 192 q 433 87 460 114 q 367 60 407 60 z "},"ø":{"ha":708,"x_min":63,"x_max":646,"o":"m 576 647 q 646 429 646 571 l 646 294 q 568 65 646 139 q 356 -8 490 -8 q 192 28 258 -8 l 149 -40 l 63 -40 l 133 74 q 63 294 63 151 l 63 429 q 141 657 63 583 q 356 731 219 731 q 519 693 451 731 l 560 758 l 646 758 l 576 647 m 238 242 l 432 553 q 356 578 403 578 q 233 426 233 578 l 233 296 q 238 242 233 265 m 471 478 l 278 168 q 356 144 307 144 q 475 296 475 144 l 475 426 q 471 478 475 456 z "},"ù":{"ha":722,"x_min":75,"x_max":647,"o":"m 75 292 l 75 722 l 247 722 l 247 300 q 270 184 247 224 q 361 144 293 144 q 452 182 429 144 q 475 300 475 219 l 475 722 l 647 722 l 647 292 q 576 67 647 142 q 361 -8 506 -8 q 75 292 75 -8 m 140 1001 l 331 1001 l 481 817 l 332 817 l 140 1001 z "},"ú":{"ha":722,"x_min":75,"x_max":647,"o":"m 75 292 l 75 722 l 247 722 l 247 300 q 270 184 247 224 q 361 144 293 144 q 452 182 429 144 q 475 300 475 219 l 475 722 l 647 722 l 647 292 q 576 67 647 142 q 361 -8 506 -8 q 75 292 75 -8 m 382 1001 l 572 1001 l 381 817 l 232 817 l 382 1001 z "},"û":{"ha":722,"x_min":75,"x_max":647,"o":"m 75 292 l 75 722 l 247 722 l 247 300 q 270 184 247 224 q 361 144 293 144 q 452 182 429 144 q 475 300 475 219 l 475 722 l 647 722 l 647 292 q 576 67 647 142 q 361 -8 506 -8 q 75 292 75 -8 m 297 1011 l 424 1011 l 583 801 l 449 801 l 361 910 l 274 801 l 138 801 l 297 1011 z "},"ü":{"ha":722,"x_min":75,"x_max":647,"o":"m 75 292 l 75 722 l 247 722 l 247 300 q 270 184 247 224 q 361 144 293 144 q 452 182 429 144 q 475 300 475 219 l 475 722 l 647 722 l 647 292 q 576 67 647 142 q 361 -8 506 -8 q 75 292 75 -8 m 153 976 l 301 976 l 301 815 l 153 815 l 153 976 m 419 976 l 568 976 l 568 815 l 419 815 l 419 976 z "},"ý":{"ha":669,"x_min":13,"x_max":657,"o":"m 657 722 l 383 -62 q 303 -178 356 -142 q 165 -214 251 -214 l 106 -214 l 106 -60 l 160 -60 q 222 -45 201 -60 q 254 10 242 -31 l 257 19 l 13 722 l 194 722 l 336 268 l 481 722 l 657 722 m 356 1001 l 546 1001 l 354 817 l 206 817 l 356 1001 z "},"þ":{"ha":715,"x_min":75,"x_max":654,"o":"m 75 958 l 247 958 l 247 649 q 408 731 307 731 q 585 657 517 731 q 653 433 653 583 l 653 290 q 585 66 653 140 q 414 -8 517 -8 q 243 67 304 -8 l 243 -217 l 75 -217 l 75 958 m 481 296 l 481 426 q 449 542 481 507 q 365 578 418 578 q 278 539 310 578 q 246 426 246 500 l 246 296 q 278 183 246 222 q 369 144 311 144 q 481 296 481 144 z "},"ÿ":{"ha":669,"x_min":13,"x_max":657,"o":"m 657 722 l 383 -62 q 303 -178 356 -142 q 165 -214 251 -214 l 106 -214 l 106 -60 l 160 -60 q 222 -45 201 -60 q 254 10 242 -31 l 257 19 l 13 722 l 194 722 l 336 268 l 481 722 l 657 722 m 126 976 l 275 976 l 275 815 l 126 815 l 126 976 m 393 976 l 542 976 l 542 815 l 393 815 l 393 976 z "},"ı":{"ha":335,"x_min":82,"x_max":253,"o":"m 82 722 l 253 722 l 253 0 l 82 0 l 82 722 z "},"Œ":{"ha":1210,"x_min":69,"x_max":1161,"o":"m 764 800 l 764 563 l 1099 563 l 1099 404 l 764 404 l 764 158 l 1161 158 l 1161 0 l 596 0 l 596 43 q 400 -11 513 -11 q 160 79 250 -11 q 69 371 69 169 l 69 590 q 162 881 69 790 q 401 972 254 972 q 596 917 513 972 l 596 958 l 1161 958 l 1161 800 l 764 800 m 582 581 q 542 758 582 703 q 418 813 501 813 q 292 759 331 813 q 253 581 253 706 l 253 374 q 292 203 253 256 q 418 151 331 151 q 542 205 501 151 q 582 374 582 258 l 582 581 z "},"œ":{"ha":1129,"x_min":61,"x_max":1067,"o":"m 646 290 q 681 175 646 210 q 783 140 717 140 q 863 162 833 140 q 897 222 893 183 l 897 226 l 1061 226 l 1061 219 q 985 54 1061 117 q 776 -8 910 -8 q 565 63 642 -8 q 356 -8 490 -8 q 141 65 219 -8 q 63 294 63 139 l 63 429 q 141 657 63 583 q 356 731 219 731 q 565 660 490 731 q 772 731 643 731 q 987 649 907 731 q 1067 406 1067 567 l 1067 310 l 646 310 l 646 290 m 646 428 l 896 428 l 896 446 q 772 583 896 583 q 678 549 711 583 q 646 432 646 514 l 646 428 m 475 426 q 356 578 475 578 q 233 426 233 578 l 233 296 q 356 144 233 144 q 475 296 475 144 l 475 426 z "},"Š":{"ha":761,"x_min":33,"x_max":713,"o":"m 371 -8 q 131 69 217 -8 q 35 292 44 146 l 207 292 q 258 180 217 213 q 379 147 299 147 q 533 274 533 147 q 503 360 533 331 q 406 401 472 390 l 315 417 q 56 683 56 460 q 144 894 56 817 q 378 972 232 972 q 602 897 519 972 q 696 686 685 822 l 521 686 q 481 788 517 756 q 375 819 444 819 q 268 787 304 819 q 232 697 232 754 q 264 618 232 647 q 364 576 296 589 l 465 558 q 713 289 713 514 q 620 68 713 144 q 371 -8 528 -8 m 154 1238 l 290 1238 l 378 1129 l 465 1238 l 600 1238 l 440 1028 l 314 1028 l 154 1238 z "},"š":{"ha":658,"x_min":49,"x_max":614,"o":"m 324 -8 q 125 52 200 -8 q 50 214 50 113 l 50 219 l 211 219 l 211 217 q 244 153 211 176 q 329 131 276 131 q 418 151 386 131 q 450 211 450 171 q 426 263 450 244 q 347 289 403 281 l 271 301 q 111 368 163 319 q 60 507 60 417 q 135 670 60 610 q 329 731 211 731 q 472 703 410 731 q 567 628 533 676 q 601 521 601 581 l 601 513 l 442 513 l 442 517 q 412 575 442 554 q 329 596 382 596 q 249 575 276 596 q 221 519 221 554 q 242 469 221 488 q 313 444 264 451 l 397 432 q 560 365 506 417 q 614 224 614 314 q 533 52 614 113 q 324 -8 453 -8 m 106 1001 l 242 1001 l 329 893 l 417 1001 l 551 1001 l 392 792 l 265 792 l 106 1001 z "},"Ÿ":{"ha":751,"x_min":6,"x_max":746,"o":"m 467 394 l 467 0 l 285 0 l 285 393 l 6 958 l 204 958 l 375 569 l 546 958 l 746 958 l 467 394 m 167 1213 l 315 1213 l 315 1051 l 167 1051 l 167 1213 m 433 1213 l 582 1213 l 582 1051 l 433 1051 l 433 1213 z "},"Ž":{"ha":701,"x_min":42,"x_max":664,"o":"m 664 160 l 664 0 l 42 0 l 42 160 l 454 800 l 50 800 l 50 958 l 651 958 l 651 800 l 240 160 l 664 160 m 126 1238 l 263 1238 l 350 1129 l 438 1238 l 572 1238 l 413 1028 l 286 1028 l 126 1238 z "},"ž":{"ha":632,"x_min":63,"x_max":569,"o":"m 569 578 l 250 144 l 569 144 l 569 0 l 63 0 l 63 144 l 382 578 l 63 578 l 63 722 l 569 722 l 569 578 m 92 1001 l 228 1001 l 315 893 l 403 1001 l 538 1001 l 378 792 l 251 792 l 92 1001 z "},"ƒ":{"ha":582,"x_min":13,"x_max":569,"o":"m 13 -54 l 53 -54 q 122 -36 100 -54 q 151 33 143 -18 l 211 435 l 103 435 l 103 588 l 233 588 l 256 733 q 331 905 274 851 q 499 958 388 958 l 569 958 l 569 800 l 522 800 q 456 781 479 800 q 426 715 433 761 l 407 588 l 546 588 l 546 435 l 385 435 l 321 13 q 245 -164 301 -111 q 75 -217 189 -217 l 13 -217 l 13 -54 z "},"ˆ":{"ha":694,"x_min":124,"x_max":569,"o":"m 283 1011 l 410 1011 l 569 801 l 435 801 l 347 910 l 260 801 l 124 801 l 283 1011 z "},"ˇ":{"ha":694,"x_min":124,"x_max":569,"o":"m 124 1001 l 260 1001 l 347 893 l 435 1001 l 569 1001 l 410 792 l 283 792 l 124 1001 z "},"˙":{"ha":694,"x_min":260,"x_max":435,"o":"m 260 965 l 435 965 l 435 828 l 260 828 l 260 965 z "},"˚":{"ha":694,"x_min":200,"x_max":489,"o":"m 344 801 q 314 801 344 801 q 242 842 283 801 q 201 944 201 883 q 242 1048 201 1007 q 344 1089 283 1089 q 447 1048 406 1089 q 488 944 488 1007 q 447 842 488 883 q 344 801 406 801 m 344 878 q 391 897 372 878 q 410 944 410 917 q 391 993 410 974 q 344 1013 372 1013 q 299 993 317 1013 q 281 944 281 974 q 299 897 281 917 q 344 878 318 878 z "},"˜":{"ha":694,"x_min":150,"x_max":543,"o":"m 150 933 q 206 979 182 965 q 263 993 231 993 q 311 986 290 993 q 361 964 332 979 q 438 940 406 940 q 486 951 465 940 q 543 996 507 963 l 543 869 q 487 824 511 838 q 431 810 463 810 q 383 817 404 810 q 333 839 363 824 q 257 863 289 863 q 208 851 229 863 q 150 808 188 840 l 150 933 z "},"̀":{"ha":0,"x_min":-221,"x_max":119,"o":"m -221 1001 l -31 1001 l 119 817 l -29 817 l -221 1001 z "},"́":{"ha":0,"x_min":-129,"x_max":211,"o":"m 21 1001 l 211 1001 l 19 817 l -129 817 l 21 1001 z "},"̂":{"ha":0,"x_min":-224,"x_max":222,"o":"m -64 1011 l 63 1011 l 222 801 l 88 801 l 0 910 l -87 801 l -224 801 l -64 1011 z "},"̃":{"ha":0,"x_min":-197,"x_max":196,"o":"m -197 933 q -141 979 -165 965 q -85 993 -117 993 q -36 986 -57 993 q 14 964 -15 979 q 90 940 58 940 q 139 951 118 940 q 196 996 160 963 l 196 869 q 140 824 164 838 q 83 810 115 810 q 36 817 57 810 q -14 839 15 824 q -90 863 -58 863 q -139 851 -118 863 q -197 808 -160 840 l -197 933 z "},"̈":{"ha":0,"x_min":-208,"x_max":207,"o":"m -208 976 l -60 976 l -60 815 l -208 815 l -208 976 m 58 976 l 207 976 l 207 815 l 58 815 l 58 976 z "},"̊":{"ha":0,"x_min":-144,"x_max":144,"o":"m 0 801 q -31 801 0 801 q -102 842 -61 801 q -143 944 -143 883 q -102 1048 -143 1007 q 0 1089 -61 1089 q 102 1048 61 1089 q 143 944 143 1007 q 102 842 143 883 q 0 801 61 801 m 0 878 q 47 897 28 878 q 65 944 65 917 q 47 993 65 974 q 0 1013 28 1013 q -46 993 -28 1013 q -64 944 -64 974 q -45 897 -64 917 q 0 878 -26 878 z "},"–":{"ha":579,"x_min":0,"x_max":579,"o":"m 0 560 l 579 560 l 579 400 l 0 400 l 0 560 z "},"—":{"ha":1157,"x_min":0,"x_max":1157,"o":"m 0 560 l 1157 560 l 1157 400 l 0 400 l 0 560 z "},"‘":{"ha":268,"x_min":53,"x_max":215,"o":"m 215 601 l 53 601 l 53 879 l 215 1017 l 215 601 m 117 958 z "},"’":{"ha":268,"x_min":53,"x_max":215,"o":"m 53 958 l 215 958 l 215 681 l 53 543 l 53 958 z "},"‚":{"ha":268,"x_min":53,"x_max":215,"o":"m 53 190 l 215 190 l 215 -87 l 53 -225 l 53 190 z "},"“":{"ha":532,"x_min":53,"x_max":479,"o":"m 215 601 l 53 601 l 53 879 l 215 1017 l 215 601 m 479 601 l 317 601 l 317 879 l 479 1017 l 479 601 m 279 958 z "},"”":{"ha":532,"x_min":53,"x_max":479,"o":"m 53 958 l 215 958 l 215 681 l 53 543 l 53 958 m 317 958 l 479 958 l 479 681 l 317 543 l 317 958 z "},"„":{"ha":531,"x_min":53,"x_max":478,"o":"m 315 190 l 478 190 l 478 -87 l 315 -225 l 315 190 m 53 190 l 215 190 l 215 -87 l 53 -225 l 53 190 z "},"†":{"ha":757,"x_min":75,"x_max":682,"o":"m 682 500 l 471 500 l 471 -217 l 289 -217 l 289 500 l 75 500 l 75 658 l 289 658 l 289 958 l 471 958 l 471 658 l 682 658 l 682 500 z "},"‡":{"ha":757,"x_min":75,"x_max":682,"o":"m 471 510 l 471 239 l 682 239 l 682 79 l 471 79 l 471 -217 l 289 -217 l 289 79 l 75 79 l 75 239 l 289 239 l 289 510 l 75 510 l 75 669 l 289 669 l 289 958 l 471 958 l 471 669 l 682 669 l 682 510 l 471 510 z "},"•":{"ha":629,"x_min":113,"x_max":517,"o":"m 315 225 q 169 282 226 225 q 113 428 113 339 q 169 574 113 517 q 315 631 226 631 q 460 574 403 631 q 517 428 517 517 q 460 282 517 339 q 315 225 403 225 z "},"…":{"ha":1074,"x_min":53,"x_max":1021,"o":"m 53 197 l 246 197 l 246 0 l 53 0 l 53 197 m 828 197 l 1021 197 l 1021 0 l 828 0 l 828 197 m 440 197 l 633 197 l 633 0 l 440 0 l 440 197 z "},"‰":{"ha":1742,"x_min":54,"x_max":1686,"o":"m 243 367 q 101 419 146 367 q 56 574 56 471 l 56 771 q 103 917 56 868 q 243 967 151 967 q 384 918 339 967 q 429 771 429 869 l 429 574 q 384 419 429 471 q 243 367 339 367 m 826 965 l 964 965 l 428 0 l 292 0 l 826 965 m 243 490 q 258 490 243 490 q 279 508 272 490 q 286 581 286 526 l 286 753 q 278 825 286 806 q 243 844 271 844 q 207 825 215 844 q 199 753 199 806 l 199 581 q 206 510 199 529 q 243 490 214 490 m 1013 -8 q 870 44 915 -8 q 825 199 825 96 l 825 396 q 873 542 825 493 q 1013 592 921 592 q 1153 543 1108 592 q 1199 396 1199 494 l 1199 199 q 1153 44 1199 96 q 1013 -8 1108 -8 m 1499 -8 q 1356 44 1401 -8 q 1311 199 1311 96 l 1311 396 q 1359 542 1311 493 q 1499 592 1407 592 q 1640 543 1594 592 q 1685 396 1685 494 l 1685 199 q 1640 44 1685 96 q 1499 -8 1594 -8 m 1013 115 q 1027 115 1013 115 q 1049 133 1042 115 q 1056 206 1056 151 l 1056 378 q 1048 450 1056 431 q 1013 469 1040 469 q 976 450 985 469 q 968 378 968 431 l 968 206 q 976 135 968 154 q 1013 115 983 115 m 1499 115 q 1513 115 1499 115 q 1535 133 1528 115 q 1542 206 1542 151 l 1542 378 q 1534 450 1542 431 q 1499 469 1526 469 q 1463 450 1471 469 q 1454 378 1454 431 l 1454 206 q 1462 135 1454 154 q 1499 115 1469 115 z "},"‹":{"ha":414,"x_min":25,"x_max":339,"o":"m 25 367 l 339 682 l 339 500 l 207 367 l 339 233 l 339 51 l 25 367 z "},"›":{"ha":428,"x_min":75,"x_max":390,"o":"m 75 233 l 208 367 l 75 500 l 75 682 l 390 367 l 75 51 l 75 233 z "},"€":{"ha":763,"x_min":38,"x_max":694,"o":"m 408 -15 q 189 70 265 -15 q 113 304 113 156 l 113 335 l 38 335 l 38 447 l 113 447 l 113 517 l 38 517 l 38 629 l 113 629 l 113 663 q 190 889 113 806 q 410 972 267 972 q 608 906 533 972 q 692 724 683 840 l 536 724 q 413 825 517 825 q 282 661 282 825 l 282 629 l 550 629 l 531 517 l 282 517 l 282 447 l 521 447 l 501 335 l 282 335 l 282 303 q 314 177 282 222 q 414 132 346 132 q 499 158 468 132 q 542 235 531 183 l 693 235 q 605 48 682 111 q 408 -15 528 -15 z "},"™":{"ha":1125,"x_min":42,"x_max":1043,"o":"m 189 846 l 42 846 l 42 958 l 463 958 l 463 846 l 315 846 l 315 411 l 189 411 l 189 846 m 540 958 l 657 958 l 792 643 l 796 643 l 928 958 l 1043 958 l 1043 411 l 926 411 l 926 697 l 922 697 l 835 490 l 750 490 l 661 697 l 658 697 l 658 411 l 540 411 l 540 958 z "},"ﬁ":{"ha":799,"x_min":50,"x_max":718,"o":"m 369 842 q 315 824 332 842 q 297 772 297 807 l 297 722 l 426 722 l 426 601 l 297 601 l 297 0 l 126 0 l 126 601 l 50 601 l 50 722 l 126 722 l 126 765 q 178 908 126 857 q 326 958 231 958 l 426 958 l 426 842 l 369 842 m 546 722 l 717 722 l 717 0 l 546 0 l 546 722 m 543 958 l 718 958 l 718 821 l 543 821 l 543 958 z "},"ﬂ":{"ha":863,"x_min":50,"x_max":838,"o":"m 369 842 q 315 824 332 842 q 297 772 297 807 l 297 722 l 426 722 l 426 601 l 297 601 l 297 0 l 126 0 l 126 601 l 50 601 l 50 722 l 126 722 l 126 765 q 178 908 126 857 q 326 958 231 958 l 426 958 l 426 842 l 369 842 m 758 0 q 597 57 654 0 q 539 219 539 114 l 539 958 l 711 958 l 711 231 q 727 167 711 186 q 779 149 743 149 l 838 149 l 838 0 l 758 0 z "}}}
